<?xml version="1.0" encoding="utf-8"?>
<!-- Generator: Adobe Illustrator 20.1.0, SVG Export Plug-In . SVG Version: 6.00 Build 0)  -->
<svg version="1.1" xmlns="http://www.w3.org/2000/svg" xmlns:xlink="http://www.w3.org/1999/xlink" x="0px" y="0px"
	 viewBox="0 0 841.9 595.3" style="enable-background:new 0 0 841.9 595.3;" xml:space="preserve">
<style type="text/css">
	.st0{display:none;}
	.st1{display:inline;}
	.st2{opacity:0.8;fill:#FFFFFF;}
	.st3{opacity:0.6;fill:#FFFFFF;}
	.st4{fill:#FFFFFF;}
	.st5{opacity:0.15;fill:#FFFFFF;}
	.st6{opacity:8.000000e-02;fill:#FFFFFF;}
	.st7{opacity:0.25;fill:#FFFFFF;}
	.st8{opacity:0.4;fill:#FFFFFF;}
</style>
<g id="Calque_2" class="st0">
	<rect x="-4.7" y="-4.6" class="st1" width="855" height="608"/>
</g>
<g id="Calque_1">
	<path class="st2" d="M69.6,479.9c-0.9-1.2-1.9-0.2-1.2,0.9C69.1,481.8,70.5,481.1,69.6,479.9z"/>
	<path class="st2" d="M46.7,556.2c-0.9-1.2-1.9-0.2-1.2,0.9C46.2,558.1,47.5,557.5,46.7,556.2z"/>
	<path class="st2" d="M-0.1,542.6c-1.7,0.3-0.1,2.7,0.9,2.6C2.8,544.8,1.5,542.3-0.1,542.6z"/>
	<path class="st2" d="M114.1,571.7c0-1.8-1.9-1.5-2.2,0C111.6,573.5,114.1,573.7,114.1,571.7z"/>
	<path class="st2" d="M79.6,555.4c-0.6-0.4-1.1-1-1.6-0.3c-0.4,0.5-0.1,1.3,0.3,1.6C79.2,557.5,80.5,556,79.6,555.4z"/>
	<path class="st2" d="M140,578.6c-0.6-0.4-1.8-0.9-2,0.1C137.7,580.9,141,580.4,140,578.6C139.8,578.5,140.2,578.9,140,578.6z"/>
	<path class="st2" d="M67.3,582.9c-0.7-0.4-0.9-0.8-1.6-0.1c-0.6,0.6-0.5,1.1-0.1,1.7C66.8,586.3,68,583.3,67.3,582.9
		C67,582.7,67.6,583.1,67.3,582.9z"/>
	<path class="st2" d="M144.3,519.3c-0.2,1.1,0.4,2.4,1.7,1.8c0.6-0.3,0.9-0.8,0.5-1.4C146,518.8,145.1,519.1,144.3,519.3
		C144.2,520,144.7,519.3,144.3,519.3z"/>
	<path class="st2" d="M48.7,579.6c-0.2-1.1-2.5-0.1-1.7,1C47.8,581.9,48.8,580.4,48.7,579.6z"/>
	<path class="st2" d="M159,527.7c-0.2-1.1-2.5-0.1-1.7,1C158.2,530.1,159.2,528.6,159,527.7z"/>
	<path class="st2" d="M46.1,586.2c-0.3-0.4-0.1-1.2-0.7-1.3c-0.8-0.2-1.6,0.5-0.7,1.6C45,586.7,46.7,587,46.1,586.2
		C45.8,585.7,46.2,586.2,46.1,586.2z"/>
	<path class="st2" d="M42.8,579c0.8-0.9-0.4-1.9-1.2-1.4C39.9,578.4,41.6,579.4,42.8,579C42.8,578.9,42.7,579,42.8,579z"/>
	<path class="st2" d="M45.4,577.8c-0.8-0.6-2.9-0.3-2.1,1.1C44.1,580.2,45.9,579.1,45.4,577.8C45,577.5,45.5,578,45.4,577.8z"/>
	<path class="st2" d="M48,582.9c-0.4,0.5-2.3,1.9-0.7,2.4C48.7,585.8,49,583.5,48,582.9C47.9,583.1,48.5,583.3,48,582.9z"/>
	<path class="st2" d="M56.2,588.9c-0.3-0.8-1.5-1.2-2.1-0.6c-0.4,0.3-0.7,2.3-0.2,2.7c0.1,0.1,1.7,0.1,1.8,0.1
		C56.6,590.7,56.4,589.6,56.2,588.9C56,588.2,56.3,589.3,56.2,588.9z"/>
	<path class="st2" d="M46,594c-0.6-0.4-0.6-0.6-1.3-0.4c-0.6,0.2-1.1,1.1-0.9,1.7C44.7,597.6,47.5,594.9,46,594z"/>
	<path class="st2" d="M36.8,546.6c-1.9-0.9-2.2,2.2-0.6,2.5c0.3,0.1,0.7-0.2,1-0.5C38,547.7,37.8,547.1,36.8,546.6
		C36.8,546.6,37.1,546.7,36.8,546.6z"/>
	<path class="st2" d="M55,530.7c-0.7,0-0.5-0.3-1.1,0.1c-0.2,0.1-0.5,1.2-0.5,1.4C54,534.8,56.8,530.8,55,530.7
		C54.7,530.7,55.3,530.7,55,530.7z"/>
	<path class="st2" d="M358.9,559.1c-0.7,0-0.5-0.3-1.1,0.1c-0.2,0.1-0.5,1.2-0.5,1.4C357.9,563.2,360.8,559.2,358.9,559.1
		C358.7,559.1,359.2,559.1,358.9,559.1z"/>
	<path class="st2" d="M52.6,569.4c-0.7,0-0.5-0.3-1.1,0.1c-0.2,0.1-0.5,1.2-0.5,1.4C51.5,573.5,54.4,569.5,52.6,569.4
		C52.3,569.4,52.9,569.4,52.6,569.4z"/>
	<path class="st2" d="M18.9,484.4c-1.2-0.6-3.2,0.3-1.8,1.6C18.4,487.2,20.5,485.1,18.9,484.4z"/>
	<path class="st2" d="M69.3,573.2c-0.6-2.1-3.1-0.6-2.6,0.8C67.2,575.5,69.9,575.2,69.3,573.2C69.1,572.8,69.4,573.6,69.3,573.2z"/>
	<path class="st2" d="M98.5,581.4c1.3-0.1,1.7-2.1,0-1.6C97.6,580.1,97.3,581.5,98.5,581.4C99,581.3,98.1,581.4,98.5,581.4z"/>
	<path class="st2" d="M0.4,595.1c1.3-0.1,1.7-2.1,0-1.6C-0.5,593.8-0.9,595.2,0.4,595.1C0.9,595,0,595.1,0.4,595.1z"/>
	<path class="st2" d="M42,502.6c-0.7-0.1-2.4,1.1-1.4,2C41.6,505.6,43.9,502.8,42,502.6z"/>
	<path class="st2" d="M71.9,544.8c-0.7-0.1-2.4,1.1-1.4,2C71.5,547.8,73.8,545,71.9,544.8z"/>
	<path class="st2" d="M44.3,566.1c0.5-1.4-1.5-2.6-2-1C41.7,566.6,43.4,566.2,44.3,566.1C44.5,565.7,44.2,566.1,44.3,566.1z"/>
	<path class="st2" d="M9,584.2c-0.2-1.1-2.6-1.9-2.2-0.2C7.1,584.9,9.2,585.2,9,584.2z"/>
	<path class="st2" d="M36.2,579.5c-0.8-1.6-4.2,0.5-3.2,2.1C34.1,583.6,37.1,581.3,36.2,579.5z"/>
	<path class="st2" d="M32.3,572.5c0.9-0.6-0.6-2.2-1.6-1.6C29,571.7,31.5,573,32.3,572.5z"/>
	<path class="st2" d="M25.7,569.2c-1.1-0.2-1.8,1.7-0.6,2.2c0.6,0.2,1,0,1.3-0.5C26.6,570.1,26.1,569.8,25.7,569.2
		C25.5,569.2,25.8,569.4,25.7,569.2z"/>
	<path class="st2" d="M39.9,582.3c0.5-1.8-3.7-0.7-1.3,1C39.4,583.8,39.7,583.2,39.9,582.3z"/>
	<path class="st2" d="M43.8,584.9c0.1-0.3-1.2-0.5-1.3-0.4c-0.7,0.2-1,1.1-0.9,1.6c0.1,0.9,1,1.7,1.8,1c0.2-0.1,0.6-0.9,0.6-1.1
		C44.1,585.5,43.4,585.6,43.8,584.9z"/>
	<path class="st2" d="M46,590.5c-1.1-0.7-1.8,0.1-1.6,1.3C45,594.6,48.1,591.9,46,590.5C45.9,590.5,46.2,590.7,46,590.5z"/>
	<path class="st2" d="M43.8,588.2c-1.1-0.9-2,0.3-1.2,1.3C43.6,590.9,44.3,589.3,43.8,588.2C43.6,588.1,43.9,588.5,43.8,588.2z"/>
	<path class="st2" d="M9.6,578.2c-0.5-0.2-1.8,0-2,0.6c-0.1,0.5,0.5,1.4,0.9,1.5C9.9,580.7,10.7,579,9.6,578.2
		C9.3,578.1,10,578.5,9.6,578.2z"/>
	<path class="st2" d="M5.9,576.8c-0.5-1.1-2.4-1.4-2.2,0.2C3.9,578.9,6.7,578.5,5.9,576.8z"/>
	<path class="st2" d="M7,577.2c1.9,0.5,1.3-2.2,0.3-2C6.3,575.3,6.6,576.6,7,577.2C7.2,577.2,6.9,577,7,577.2z"/>
	<path class="st2" d="M12.5,579.7c-1.1-0.3-2.5,0.7-1.3,1.8C12.4,582.5,13,580.5,12.5,579.7C12.4,579.7,12.6,579.9,12.5,579.7z"/>
	<path class="st2" d="M36.1,572.1c-0.4,0.2-1.1,0.7-1.2,1.2c-0.1,0.7,1,1.5,1.6,1.5C38.7,574.5,38.2,571.1,36.1,572.1
		C35.7,572.3,36.7,571.8,36.1,572.1z"/>
	<path class="st2" d="M30.9,564c-1.1-0.5-1,1.2-0.5,1.7C31.7,567.2,32.5,564.6,30.9,564z"/>
	<path class="st2" d="M126.9,569.9c0-0.1-1.4-0.6-1.7,0.1c-0.3,0.5,0,1.3,0.4,1.7c0.3,0.4,1,0.7,1.5,0.5
		C127.9,571.6,127.3,570.5,126.9,569.9C126.9,569.9,127.2,570.2,126.9,569.9z"/>
	<path class="st2" d="M30.3,432.1c0.3-1.3-1.2-2.6-1.9-1.1C27.8,432.3,29.4,433,30.3,432.1C30.5,431.2,29.9,432.4,30.3,432.1z"/>
	<path class="st2" d="M138,454.7c-0.5,0.1-1.5,0.4-1.3,1.3C137.1,457.6,139.8,456.3,138,454.7C138,454.7,138.5,455,138,454.7z"/>
	<path class="st2" d="M58.3,580.1c-0.5,0.1-1.5,0.4-1.3,1.3C57.4,583,60.1,581.7,58.3,580.1C58.3,580.1,58.8,580.4,58.3,580.1z"/>
	<path class="st2" d="M5.4,593.3c-0.3-1-2.5-0.3-2,1C4,595.5,5.8,594.4,5.4,593.3z"/>
	<path class="st2" d="M7.3,485.7c-1,0.2-2.2,0.9-0.7,1.9C8.9,489.1,9.5,485.2,7.3,485.7z"/>
	<path class="st2" d="M220.9,526.8c-1.4-0.5-2.4,1.1-1,1.9C221.4,529.6,222.8,527.5,220.9,526.8C220.8,526.8,221.4,527,220.9,526.8z
		"/>
	<path class="st2" d="M125.8,444.8c-0.2-1.5-2-1.9-2.5-0.4C122.6,446.2,125.6,445.8,125.8,444.8
		C125.8,444.6,125.8,444.9,125.8,444.8z"/>
	<path class="st2" d="M145.9,536.4c1-0.3,0.7-2.5-0.6-2C144,534.9,144.6,536.8,145.9,536.4C146,536.4,145.3,536.6,145.9,536.4z"/>
	<path class="st2" d="M55.1,501.5c-0.6-1.9-2.7-0.3-1.8,0.9C54,503.4,55.5,502.7,55.1,501.5z"/>
	<path class="st2" d="M49.4,470.2c-0.5-0.3-1.2-0.9-1.7-0.5c-0.5,0.4,0,1.7,0.3,2C48.9,472.8,50.9,471.1,49.4,470.2z"/>
	<path class="st2" d="M12.6,571.1c-0.5-1.9-3-0.4-1.8,1C11.6,573,12.8,572.1,12.6,571.1z"/>
	<path class="st2" d="M9.8,570.1c-1.6-0.8-2.6,1.1-1.3,2.2C10.1,573.5,10.4,571.1,9.8,570.1C9.1,569.7,10.1,570.7,9.8,570.1z"/>
	<path class="st2" d="M18.3,572.3c-0.3-0.2-0.4-1-0.8-1.1c-0.6-0.2-1.2,0.4-1.4,0.9C15.6,574.4,18.7,573.1,18.3,572.3
		C18.3,572.3,18.3,572.3,18.3,572.3z"/>
	<path class="st2" d="M7.2,559.4c-1.1-0.5-3.2,0-2.2,1.6C6.2,562.8,8.3,559.9,7.2,559.4C7.2,559.3,7.4,559.4,7.2,559.4z"/>
	<path class="st2" d="M73.6,569.4c-0.8-0.6-2,0.3-1.6,1.3C72.7,572.7,74.6,570.1,73.6,569.4z"/>
	<path class="st2" d="M59,589.1c-0.8,0.9,0.9,2.9,1.9,2C62.2,590,60.1,588.9,59,589.1C58.7,589.5,59.3,589.1,59,589.1z"/>
	<path class="st2" d="M22.2,594.4c-1.2-1.3-3.1,0-1.9,1.4c0.4,0.5,1.1,0.6,1.7,0.4C23.1,595.7,22.5,595.3,22.2,594.4
		C22,594.2,22.3,594.8,22.2,594.4z"/>
	<path class="st2" d="M200.8,464.1c-0.1-1.6-2.2-2.7-2.7-0.7C197.8,464.9,200.9,466.1,200.8,464.1z"/>
	<path class="st2" d="M32.8,594.4c-0.5-2.1-3.1-0.2-2.5,1.3c0.2,0.5,1.2,1,1.7,0.9C33.1,596.3,33,595.1,32.8,594.4z"/>
	<path class="st2" d="M65.6,570.8c0.1-1.7-2.5-2.7-2.7-0.6C62.8,571.3,64.9,571.8,65.6,570.8C65.7,570.2,65.6,570.8,65.6,570.8z"/>
	<path class="st2" d="M29.3,589.6c-0.2-0.9-3.4,0.8-1.7,2.3c0.4,0.3,0.9,0.6,1.3,0.5C30.2,591.9,29.5,590.4,29.3,589.6
		C29.2,589.4,29.4,590.1,29.3,589.6z"/>
	<path class="st2" d="M27.1,592.5c-0.6-1-3.3-0.9-2.7,0.7c0.2,0.5,1.3,1.4,1.9,1.3C26.8,594.3,27.4,592.9,27.1,592.5z"/>
	<path class="st2" d="M40.2,594.5c-1-1.2-2.8,0.2-1.6,1.4C39.6,597,40.8,595.6,40.2,594.5C40,594.3,40.2,594.6,40.2,594.5z"/>
	<path class="st2" d="M79.1,515c-1.6-0.6-1.9,0.9-1.2,2.1c0.4,0.7,1,1.1,1.7,0.5C80.2,516.8,79.6,515.6,79.1,515
		C79.1,515,79.4,515.4,79.1,515z"/>
	<path class="st2" d="M22.6,577.2c-0.4-0.2-1-0.8-1.5-0.6c-0.8,0.3-0.6,1.7-0.1,2.2C22.1,580.1,24.6,578.2,22.6,577.2z"/>
	<path class="st2" d="M23.5,573.6c-1.4-0.3-2.5,1.3-1.1,2.1C23.8,576.5,25,573.9,23.5,573.6C23.2,573.5,23.9,573.7,23.5,573.6z"/>
	<path class="st2" d="M30.7,550c-0.1-1.1-3-0.7-2.4,0.9C28.9,552.3,30.8,551.1,30.7,550z"/>
	<path class="st2" d="M194.8,555.5c-0.6-0.9-2.9-1-3,0.5C191.8,558,195.7,556.7,194.8,555.5z"/>
	<path class="st2" d="M19.9,585.2c-1.4-0.1-0.4,2.5,0.8,2.4c0.4,0,0.7-0.1,0.8-0.5C22,586,20.5,585.6,19.9,585.2
		C19.8,585.2,20.1,585.4,19.9,585.2z"/>
	<path class="st2" d="M8.7,546.4c-0.2-0.1-0.6-0.4-0.8-0.4c-0.9,0-1,0.9-0.7,1.7C8.3,550.2,10.2,546.8,8.7,546.4z"/>
	<path class="st2" d="M86.9,554c-1.1-0.6-2.6-0.3-2,1.3C85.5,556.9,87.6,555.6,86.9,554C86.5,553.8,87.1,554.5,86.9,554z"/>
	<path class="st2" d="M58.4,552.8c-0.5-1.8-2.9-1.6-2.7,0.4C55.9,554.8,59.1,555.2,58.4,552.8z"/>
	<path class="st2" d="M25.3,567.4c-0.1-1.7-2.2-1.1-2.4,0c-0.1,0.8,0.8,1.7,1.6,1.6C25.5,568.9,25.2,568.1,25.3,567.4
		C25.3,566.9,25.3,567.6,25.3,567.4z"/>
	<path class="st2" d="M28.5,566.9c-1.1-0.6-0.7-1.7-1.9-0.7c-0.7,0.6-1.1,1.3-0.4,2.1C27.4,569.8,30.2,567.8,28.5,566.9
		C28.1,566.6,28.7,567,28.5,566.9z"/>
	<path class="st2" d="M205.9,563.7c-1.1-0.3-2.5,0.7-1.8,1.8C205.1,567,206.6,564.8,205.9,563.7C205.9,563.7,206,563.9,205.9,563.7z
		"/>
	<path class="st2" d="M8.8,589.7c-1.2-0.8-2.6,1.1-1.2,1.9C9,592.4,10.2,590.7,8.8,589.7z"/>
	<path class="st2" d="M14.9,577.7c1.2,0,0.6-2.2-0.2-2.5c-0.6-0.2-0.9,0.1-1,0.6C13.5,576.7,14.3,577.3,14.9,577.7
		C15,577.7,14.6,577.5,14.9,577.7z"/>
	<path class="st2" d="M18.1,577.2c-0.7,0.3-2.5,0.4-1.9,1.6C17.4,581,19.8,578.5,18.1,577.2C18.1,577.2,18.2,577.3,18.1,577.2z"/>
	<path class="st2" d="M77.1,522.2c-1-1-2,1.5-1.3,2.2c0.3,0.3,1.1,0.2,1.4,0C78.1,523.7,77.6,522.8,77.1,522.2
		C77,522.1,77.3,522.4,77.1,522.2z"/>
	<path class="st2" d="M20.9,562.6c-0.1-0.4-1.1-0.8-1.5-0.6c-0.5,0.4-0.3,1.6,0,2.1c0.4,0.6,1.2,1,1.7,0.2
		C21.4,563.9,21.1,563.1,20.9,562.6C20.9,562.5,21.1,563.1,20.9,562.6z"/>
	<path class="st2" d="M17.5,588.7c-1,0.2-2-0.4-1.3,1.1c0.3,0.7,1.1,1.2,1.8,1C19.4,590.5,18.9,588.4,17.5,588.7z"/>
	<path class="st2" d="M69.7,447.4c-1.6-1.1-2.9,1.2-1.1,1.7C69.8,449.4,71,448.3,69.7,447.4z"/>
	<path class="st2" d="M7.1,596.2c0.5-1.1-2.6-1.8-2,0C5.5,597.3,6.8,597,7.1,596.2z"/>
	<path class="st2" d="M2.4,583.9c0.9,1,2.5,0.8,1.9-0.8C3.7,581.1,1.4,582.8,2.4,583.9z"/>
	<path class="st2" d="M50.8,546.1c-1.3-0.8-2.5,0.5-1.9,1.9c0.3,0.8,1.1,1,1.7,0.6C51.6,548,51.2,547,50.8,546.1
		C50.7,546.1,51,546.5,50.8,546.1z"/>
	<path class="st2" d="M196,497.6c-1.5-0.4-2.3,1.5-0.8,2C196.3,499.9,197.6,498,196,497.6C195.5,497.4,196.3,497.6,196,497.6z"/>
	<path class="st2" d="M87.1,531.1c0.6,0,1.7-1.1,1.5-1.7c-0.1-0.5-1.3-0.6-1.7-0.6C85.1,528.7,86.2,530.4,87.1,531.1
		C87.3,531.1,87,531,87.1,531.1z"/>
	<path class="st2" d="M46.9,421.4c-0.7-0.8-2.3,0.4-2.1,1.1C45.1,423.9,48.4,423.2,46.9,421.4z"/>
	<path class="st2" d="M47.5,497.1c-1-1.3-3.4-0.2-2.2,1.1C45.8,498.9,48.2,498.4,47.5,497.1C47.3,496.8,47.5,497.1,47.5,497.1z"/>
	<path class="st2" d="M223.4,546.5c-1.1-0.7-2,1.7-0.5,2.2C224.5,549.3,224.6,547.2,223.4,546.5
		C223.2,546.4,223.8,546.7,223.4,546.5z"/>
	<path class="st2" d="M117.6,543.5c-0.9-0.3-2.5,0.9-1.4,1.7C117.3,546,118.8,543.9,117.6,543.5z"/>
	<path class="st2" d="M27.9,582.1c-0.2-0.2-1.1-1-1.3-1c-0.5,0-1.2,0.9-1.1,1.5c0.1,0.6,1.3,1.1,1.8,1.1c0.6,0.1,0.6,0.4,0.9-0.4
		C28.3,583,28.2,582.3,27.9,582.1C27.7,581.9,28.2,582.3,27.9,582.1z"/>
	<path class="st2" d="M36.1,592.6c-1.6-0.9-3.3,1.3-2,2.7C35.7,597,37.7,594.3,36.1,592.6C36,592.6,36.4,593,36.1,592.6z"/>
	<path class="st2" d="M24.7,560.8c-1.5,0.2-1.8,1.7-0.4,2.6C26.3,564.7,26.9,560.5,24.7,560.8z"/>
	<path class="st2" d="M13.9,549.5c-1-1.9-3.4,0.9-1.4,1.8C13.9,551.9,14.5,550.6,13.9,549.5z"/>
	<path class="st2" d="M7.3,567.2C7,565.7,5,565,4.9,567C4.8,568.8,7.6,568.7,7.3,567.2z"/>
	<path class="st2" d="M15.9,596.3c1-1.4-1-3.3-2.1-1.8C12.9,595.6,15,597.4,15.9,596.3z"/>
	<path class="st2" d="M23.6,584.4c-0.6-0.4-2.5,1.7-1.1,2.4C24,587.8,24.8,585.3,23.6,584.4z"/>
	<path class="st2" d="M248.6,468.4c-1-0.7-2.1,0.6-1.4,1.6C248.2,471.7,250.2,469.4,248.6,468.4C248.4,468.3,249,468.6,248.6,468.4z
		"/>
	<path class="st2" d="M36,564c-1.2-0.5-2,1.2-1.1,2c0.4,0.4,1.1,0.4,1.5,0C37,565.2,36.4,564.6,36,564C35.8,563.9,36,564.1,36,564z"
		/>
	<path class="st2" d="M14.4,535.5c-1.1-0.9-2.9-0.8-2.1,1.1C13,538.2,14.8,537,14.4,535.5C14.1,535.3,14.4,535.5,14.4,535.5z"/>
	<path class="st2" d="M334.8,396.6c-1.7-0.6-2,1.7-0.8,2.5C335.7,400.3,335.5,397.5,334.8,396.6C334.7,396.5,335.1,397,334.8,396.6z
		"/>
	<path class="st2" d="M126.9,497.5c-0.8-0.8-3,0.4-2,1.6c0.1,0.1,1.8,0.8,1.9,0.8C127.7,499.5,127.3,497.9,126.9,497.5
		C126.6,497.1,127.3,497.9,126.9,497.5z"/>
	<path class="st2" d="M191.9,538.2c-0.5-0.6-2.1-1.4-2.3,0C189.3,540.1,193.1,540.1,191.9,538.2
		C191.8,538.1,192.1,538.5,191.9,538.2z"/>
	<path class="st2" d="M60.5,593.4c-0.2-1.4-2.1-2.1-2.4-0.4C57.8,594.9,60.9,595.5,60.5,593.4C60.4,593,60.6,593.7,60.5,593.4z"/>
	<path class="st2" d="M2.5,580.7c-0.2-1.3-2.2-1.7-2.3-0.2C0.1,582,2.9,582.4,2.5,580.7z"/>
	<path class="st2" d="M60.5,566.8c-0.9-0.9-2.9-0.1-2,1.1C59.3,569.2,61.3,568.1,60.5,566.8C60.4,566.7,60.6,567,60.5,566.8z"/>
	<path class="st2" d="M36.1,539c-1.2-0.3-2.4,1.2-1.3,2.2C36.4,542.7,38,539.5,36.1,539C36.1,539,36.2,539,36.1,539z"/>
	<path class="st2" d="M105.2,480.9c-1-1.2-2.4-1.1-1.6,0.8C104.4,483.7,106.7,482.8,105.2,480.9z"/>
	<path class="st2" d="M52,593.3c-0.1-1-1.4-2.5-1.8-0.8C49.9,593.7,51.5,594.4,52,593.3C52,593.1,52,593.4,52,593.3z"/>
	<path class="st2" d="M19.6,566.7c-0.8-1.2-3.6-0.8-2.8,0.6c0.2,0.4,1.5,0.9,1.9,0.9C19,568,19.9,567,19.6,566.7
		C19.2,566,19.7,566.7,19.6,566.7z"/>
	<path class="st2" d="M43.4,561.8c0.3,1.9-2.3,1.9-2.7,0.2C40.2,559.7,42.9,559.7,43.4,561.8C43.4,561.9,43.3,561.5,43.4,561.8z"/>
	<path class="st2" d="M34.1,587.9c-1.7,0.7-2.4-3-0.5-3C35.8,585,36.1,587.3,34.1,587.9C33.4,588.3,34.4,587.8,34.1,587.9z"/>
	<path class="st2" d="M50.3,577.6c-0.1-0.8-0.3-1.5,0.3-2c0.6-0.5,1.5-0.4,2,0.3C54.3,578.1,50.4,579.1,50.3,577.6
		C50.2,576.9,50.3,577.7,50.3,577.6z"/>
	<path class="st2" d="M78.5,575.9c0.5,1.8-2.2,2.1-2.6,0.4C75.3,574.2,78,573.8,78.5,575.9C78.7,576.7,78.4,575.6,78.5,575.9z"/>
	<path class="st2" d="M110.8,421.2c1.6-0.8,0.8-3.3-1-2.7C108.3,419.1,109.4,421.9,110.8,421.2z"/>
	<path class="st2" d="M166.6,507.5c-0.5-0.5-1.3-1.2-2-0.8c-0.5,0.3-0.8,1.5-0.6,2C164.8,510.9,167.5,508.4,166.6,507.5
		C166.2,507.1,166.7,507.6,166.6,507.5z"/>
	<path class="st2" d="M27.7,517.4c-1.2-1-3.9-0.3-2.3,1.4C26.6,520,29,518.4,27.7,517.4C27.4,517.2,28,517.6,27.7,517.4z"/>
	<path class="st2" d="M120.8,519.2c-0.1,0.7-0.2,1.4-1,1.6c-0.5,0.1-1.7-0.4-1.9-0.9c-0.4-0.7,0.2-1.3,0.8-1.6
		C119.8,517.8,120.2,518.5,120.8,519.2C120.8,519.5,120.6,518.9,120.8,519.2z"/>
	<path class="st2" d="M38.1,556.1c0.2,2.2-3.7,1-2.6-0.6C36.1,554.4,37.8,555,38.1,556.1C38.1,556.3,38.1,556,38.1,556.1z"/>
	<path class="st2" d="M42.9,574.5c1.1-0.1,3.5,1.1,1.6,2.2C42.9,577.7,41.5,574.8,42.9,574.5C43,574.5,42.5,574.6,42.9,574.5z"/>
	<path class="st2" d="M54.2,515.7c1.5-0.4,2.6,1.9,1.1,2.4C54,518.5,52.2,516.4,54.2,515.7C54.6,515.5,53.9,515.8,54.2,515.7z"/>
	<path class="st2" d="M36.9,589.8c-0.2-0.5,0.1-1.6,0.8-1.6c0.6,0,1.3,1.3,1.4,1.8C39.4,591.8,37.3,591.2,36.9,589.8
		C36.7,589.1,37.1,590.4,36.9,589.8z"/>
	<path class="st2" d="M107.5,563.1c1-0.1,2.7,1.8,1.3,2.8C107.2,567.1,106,563.3,107.5,563.1C107.8,563.1,106.8,563.2,107.5,563.1z"
		/>
	<path class="st2" d="M4.1,574c0.2,1.5-1.3,2-2,0.6C1.3,572.9,3.6,572.2,4.1,574C4.2,574.3,4.1,573.8,4.1,574z"/>
	<path class="st2" d="M43.9,534.7c-1.3-0.1-2.8-2-0.8-2.5C44.9,531.8,44.9,533.8,43.9,534.7C43.8,534.7,44.1,534.6,43.9,534.7z"/>
	<path class="st2" d="M18.6,510.7c0.5,1.6-1.7,1.8-2.4,0.7C15.2,509.8,18.1,508.9,18.6,510.7C18.8,511.3,18.4,510,18.6,510.7z"/>
	<path class="st2" d="M16.7,584.4c0.1,2-2.2,0.8-2.3-0.4c0-0.7,0.4-1,1.1-1C16.5,583,16.5,583.5,16.7,584.4
		C16.7,584.6,16.6,584,16.7,584.4z"/>
	<path class="st2" d="M87.1,518c1.7-0.4,2.3,1.8,0.5,2.1C86.1,520.3,85.6,518.4,87.1,518C87.8,517.8,87,518,87.1,518z"/>
	<path class="st2" d="M17.3,552.9c-0.7,0.2-1.4,0.3-1.9-0.3c-0.6-0.6-0.4-1.4,0.4-1.6C16.9,550.8,18.9,552.3,17.3,552.9
		C17,553,17.3,552.9,17.3,552.9z"/>
	<path class="st2" d="M133.3,484.3c-0.9-0.8-2.8-0.9-2.3,0.7C131.5,486.7,134.1,486,133.3,484.3
		C132.8,483.9,133.3,484.4,133.3,484.3z"/>
	<path class="st2" d="M31.3,506.6c0.6,0.2,1-1.1,1-1.5c-0.2-1.2-1-0.6-1.5-0.5C28.9,505.2,30.1,506.1,31.3,506.6z"/>
	<path class="st2" d="M181,470c1.6-0.1,1.4-2-0.1-2.1C179.1,467.8,179.9,469.5,181,470C181.3,470,180.8,469.9,181,470z"/>
	<path class="st2" d="M87.8,511.6c1.2,0,1.8,2.1,0.5,2.5C86.9,514.4,86.3,511.9,87.8,511.6C88.6,511.6,87.7,511.6,87.8,511.6z"/>
	<path class="st2" d="M30.9,568.1c-0.6,0.2-1-0.2-1.6,0.1c-0.7,0.5-0.4,1.2,0.2,1.6c0.6,0.5,0.8,0.6,1.3,0
		C31,569.6,31.5,567.8,30.9,568.1C30.5,568.3,31.2,568,30.9,568.1z"/>
	<path class="st3" d="M47.7,562.4c-0.9-1.2-1.9-0.2-1.2,0.9C47.2,564.3,48.6,563.6,47.7,562.4z"/>
	<path class="st3" d="M147.4,564c-0.9-1.2-1.9-0.2-1.2,0.9C146.9,565.9,148.3,565.2,147.4,564z"/>
	<path class="st3" d="M18.5,585.7c-0.9-1.2-1.9-0.2-1.2,0.9C18,587.6,19.3,587,18.5,585.7z"/>
	<path class="st3" d="M22.6,521.5c0.4,0.6,1.4,0.4,1.5-0.4C24.1,519.4,21.5,519.7,22.6,521.5C22.9,522.1,22.3,521.2,22.6,521.5z"/>
	<path class="st3" d="M92,558.9c2-0.1,1.6-3.2-0.3-2.6c-0.5,0.1-1.1,0.9-1.1,1.4C90.6,558.5,91.4,558.6,92,558.9
		C92.3,558.9,91.9,558.9,92,558.9z"/>
	<path class="st3" d="M65.2,532.6c-0.6-1-2.6,0-2.1,1.2c0.2,0.6,1,1.1,1.6,0.8C65.8,534.2,65.6,533.3,65.2,532.6z"/>
	<path class="st3" d="M67.3,571.1c1.5-0.4,1.6-2.7-0.3-2.4C65.4,568.9,66.1,571.4,67.3,571.1C67.6,571,67.2,571.1,67.3,571.1z"/>
	<path class="st3" d="M65.4,544.8c-1.2-0.1-1.3,2.7,0.4,2.1C67.1,546.5,66.8,544.9,65.4,544.8z"/>
	<path class="st3" d="M120.7,571.5c-0.7-0.3-2.2,0.7-1.8,1.2C119.8,573.9,121.8,572,120.7,571.5z"/>
	<path class="st3" d="M80.9,562.9c-0.8-1-1.9-0.3-1.8,0.9C79.4,565.6,81.6,564.8,80.9,562.9C80.7,562.6,81.1,563.2,80.9,562.9z"/>
	<path class="st3" d="M138.6,548.5c0.7-1.2-1.2-2.8-2.1-1.3C135.7,548.6,137.9,549.7,138.6,548.5z"/>
	<path class="st3" d="M53,588.5c-0.8-0.1-2,0.2-2.4,0.9c-0.4,0.6-0.4,1.2,0.3,1.5C52.4,591.5,54.4,590,53,588.5
		C52.9,588.5,53.2,588.7,53,588.5z"/>
	<path class="st3" d="M46.2,583c0.7,0.3,1.7,0.5,1.5-0.8C47.4,580.2,44.9,581.4,46.2,583C46.2,582.9,46.2,582.9,46.2,583z"/>
	<path class="st3" d="M3.4,589.2c0.8-0.9-0.4-1.9-1.2-1.4C0.5,588.6,2.2,589.7,3.4,589.2C3.4,589.2,3.3,589.3,3.4,589.2z"/>
	<path class="st3" d="M47,576.1c1.3,1.3,2.6-0.2,1-1.4C46.6,573.6,45.9,575,47,576.1z"/>
	<path class="st3" d="M30,530.3c-0.7-0.7-2.3-1.3-2.7,0.3C26.9,532.3,30,532.3,30,530.3C29.8,530.1,30,530.6,30,530.3z"/>
	<path class="st3" d="M4.3,424.7c-0.8-1.3-4-0.8-2.7,1C2.5,427,4.6,426.4,4.3,424.7C4.1,424.4,4.4,425,4.3,424.7z"/>
	<path class="st3" d="M9.3,574.9c1.3-0.1,1.7-2.1,0-1.6C8.4,573.6,8,575,9.3,574.9C9.8,574.8,8.9,574.9,9.3,574.9z"/>
	<path class="st3" d="M62.9,471.3c1.3-0.1,1.7-2.1,0-1.6C62.1,470,61.7,471.4,62.9,471.3C63.5,471.3,62.5,471.4,62.9,471.3z"/>
	<path class="st3" d="M39.3,580.6c1.3-0.1,1.7-2.1,0-1.6C38.4,579.3,38,580.8,39.3,580.6C39.8,580.6,38.8,580.7,39.3,580.6z"/>
	<path class="st3" d="M42.1,572.1c-0.3-1.4-2.6-1.4-1.3,0.1C41.6,573,42.3,573.3,42.1,572.1z"/>
	<path class="st3" d="M45.9,569.2c-0.3-1.7-3.8-1.5-1.9,0.2C45.1,570.2,46.2,570.5,45.9,569.2z"/>
	<path class="st3" d="M40.9,573.6c-0.2-1.1-2.6-1.9-2.2-0.2C38.9,574.3,41.1,574.6,40.9,573.6z"/>
	<path class="st3" d="M11.5,575.8c-0.8-1.6-3.2,0-2.2,1.6C10.4,579.3,12.4,577.6,11.5,575.8z"/>
	<path class="st3" d="M30.6,572.6c-1.6-0.9-2.4,1.3-1.1,2.2C31.2,576.1,32.2,573.8,30.6,572.6C30.4,572.5,30.8,572.8,30.6,572.6z"/>
	<path class="st3" d="M98.6,554.9c-1.1-0.2-1.8,1.7-0.6,2.2c0.6,0.2,1,0,1.3-0.5C99.5,555.7,99,555.4,98.6,554.9
		C98.5,554.8,98.8,555.1,98.6,554.9z"/>
	<path class="st3" d="M32.8,579c-0.2-1.7-3.1-2.5-2.7,0C30.4,580.8,33,580.8,32.8,579C32.8,578.4,32.9,579.1,32.8,579z"/>
	<path class="st3" d="M39.2,585.9c-0.5-0.5-1-0.9-1.7-0.6c-0.7,0.3-1,0.8-0.6,1.6C37.7,588.2,40,587,39.2,585.9
		C39,585.8,39.2,586,39.2,585.9z"/>
	<path class="st3" d="M0.3,578.5c0.5-1.8-3.7-0.7-1.3,1C-0.3,580.1,0,579.5,0.3,578.5z"/>
	<path class="st3" d="M41.5,582.9c-0.7-0.5-0.9-0.7-1.4,0.1c-0.2,0.4-0.4,1.6-0.2,1.9C40.7,586.2,42.9,583.8,41.5,582.9z"/>
	<path class="st3" d="M4.9,590.9c-0.5-0.8-2.5-1.1-2.4,0.3C2.6,592.7,5.6,592.1,4.9,590.9z"/>
	<path class="st3" d="M10.2,581.1c-1.2-0.8-3,1.3-1.5,2.1c0.4,0.2,1.6,0.1,1.8-0.3C11,582.3,10.3,581.7,10.2,581.1
		C10.1,581,10.2,581.2,10.2,581.1z"/>
	<path class="st3" d="M15.2,580.6c-0.7-0.7-1.4-1.1-2-0.2c-0.6,0.8-0.4,1.7,0.4,2.1C14.6,583,16.1,581.4,15.2,580.6z"/>
	<path class="st3" d="M36.3,568.6c-0.7,0.2-0.8,0.2-0.9,0.9c0,0.4,0.4,1.4,0.8,1.5C37.5,571.5,37.4,569.1,36.3,568.6
		C36.3,568.6,36.7,568.8,36.3,568.6z"/>
	<path class="st3" d="M92.2,593.5c0.2-0.8,0.2-2.6-1.1-2.4c-0.3,0-1.6,0.9-1.7,1.3c-0.2,0.7,0.3,1.3,0.8,1.6
		C91.2,594.6,91.4,593.8,92.2,593.5C92.2,593.4,92.1,593.6,92.2,593.5z"/>
	<path class="st3" d="M80.3,578c-1.5-1.1-2.8,1-1.6,2.1C80.4,581.7,81.7,579,80.3,578z"/>
	<path class="st3" d="M137.5,550.7c-2.1-0.9-3.5,2-1.5,2.9c0.8,0.4,1.6,0,1.9-0.7C138.5,551.8,137.7,551.5,137.5,550.7
		C137.3,550.6,137.5,550.8,137.5,550.7z"/>
	<path class="st3" d="M85.9,592.1c-0.5-0.5-0.4-0.9-1.1-1.1c-0.5-0.1-1-0.2-1.2,0.4C82.7,593.4,87,593.1,85.9,592.1z"/>
	<path class="st3" d="M23.6,596.1c1.3,1.7,2.6-1.5,0.6-2C22.3,593.7,23.4,595.4,23.6,596.1C23.7,596.2,23.6,596.1,23.6,596.1z"/>
	<path class="st3" d="M106.9,518.7c0.3-0.6,0.5-0.9,0.1-1.5c-0.4-0.4-1.3-0.7-1.7-0.1C104.4,518.2,105.8,519.7,106.9,518.7
		C106.9,518.7,106.9,518.7,106.9,518.7z"/>
	<path class="st3" d="M60.2,578.1c1.4,0.1,1.1-2.5-0.5-2.4C58,575.9,59.3,577.8,60.2,578.1C60.5,578.1,59.9,578,60.2,578.1z"/>
	<path class="st3" d="M77,594c-1.1-0.5-2.3,1.1-1.4,2C77.1,597.4,79,594.9,77,594z"/>
	<path class="st3" d="M40.6,591.5c-0.8-0.1-0.8-0.2-1.5,0.2c-0.5,0.3-1.2,0.8-0.8,1.5C39.1,594.8,41.6,592.6,40.6,591.5
		C40.4,591.5,40.7,591.5,40.6,591.5z"/>
	<path class="st3" d="M42.6,592.5c-1.2-0.1-2.2,1.8-1.1,2.3C42.9,595.5,43.7,592.5,42.6,592.5z"/>
	<path class="st3" d="M69.5,523.3c-1.3-1.5-2.4,0-1.6,1.4C68.9,526.3,70.4,524.3,69.5,523.3C69.2,522.9,69.8,523.7,69.5,523.3z"/>
	<path class="st3" d="M21.4,574.9c-0.6-1.7-3.8-1-2.2,0.9C20,576.7,21.9,576.5,21.4,574.9z"/>
	<path class="st3" d="M64.8,444.5c0.5-0.2,0.9-0.1,1.3-0.5c0.6-0.7,0.4-1.6-0.5-2c-1-0.3-1.8,0.2-2,1.1
		C63.4,444.1,63.8,444.3,64.8,444.5C64.8,444.5,64.8,444.5,64.8,444.5z"/>
	<path class="st3" d="M1,548.5c-1.4-0.1-0.4,2.5,0.8,2.4c0.4,0,0.7-0.1,0.8-0.5C3,549.3,1.6,548.9,1,548.5
		C0.8,548.5,1.2,548.6,1,548.5z"/>
	<path class="st3" d="M22.5,568.5c-0.1-1.8-2.9-3-2.5-0.7C20.2,569.3,21.6,569.4,22.5,568.5C22.5,568,22.5,568.5,22.5,568.5z"/>
	<path class="st3" d="M112.3,496.5c-0.6-0.3-2.2-1.8-2.3-0.1c-0.1,0.9,1.4,1.9,2.2,1.6C112.9,497.8,113,497,112.3,496.5z"/>
	<path class="st3" d="M39.1,537.6c1.2,0,0.6-2.2-0.2-2.5c-0.6-0.2-0.9,0.1-1,0.6C37.7,536.6,38.6,537.2,39.1,537.6
		C39.2,537.6,38.8,537.3,39.1,537.6z"/>
	<path class="st3" d="M17.7,575.5c-0.6-0.6-0.4-1.5-1.5-1.5c-0.9,0-1,0.8-0.6,1.5c0.2,0.3,0.9,0.9,1.2,1
		C17.5,576.7,18.5,576.3,17.7,575.5z"/>
	<path class="st3" d="M29.3,379.7c-0.7-1.7-3-0.7-2,0.9C28.1,382,29.9,381.3,29.3,379.7z"/>
	<path class="st3" d="M16.8,562.4c1-1.2-2-2.9-2.4-0.8c-0.1,0.6,0.5,1.3,1.1,1.5C16.1,563.3,16.2,563,16.8,562.4
		C17,562.1,16.6,562.6,16.8,562.4z"/>
	<path class="st3" d="M6.8,524.2c-1.6-1.1-2.9,1.2-1.1,1.7C6.8,526.2,8.1,525.1,6.8,524.2z"/>
	<path class="st3" d="M27.4,463.6c-0.8-0.6-2.2-0.3-1.4,0.8C26.9,465.6,29.2,464.8,27.4,463.6C27,463.2,27.8,463.8,27.4,463.6z"/>
	<path class="st3" d="M73.3,495.7c0.5-1.1-2.6-1.8-2,0C71.7,496.8,73,496.5,73.3,495.7z"/>
	<path class="st3" d="M83.1,571c-0.7-0.2-1.7,0.2-1.3,1.1C82.7,573.6,85.4,571.6,83.1,571C83.1,571,83.8,571.2,83.1,571z"/>
	<path class="st3" d="M98.6,566.1c-1-0.8-2.4,0.8-1.3,1.9C98.7,569.3,100.2,567.3,98.6,566.1z"/>
	<path class="st3" d="M69.3,563.3c-0.7-1.2-2.8-1.6-2,0.7c0.2,0.5,0.2,1.1,0.9,1.2C69,565.3,69.7,564,69.3,563.3
		C69.1,563,69.7,563.9,69.3,563.3z"/>
	<path class="st3" d="M156.3,475.5c-1.7-0.5-1.3,2.8,0.3,2.7C158.2,478.2,157.7,475.9,156.3,475.5
		C156,475.4,156.8,475.6,156.3,475.5z"/>
	<path class="st3" d="M176,573.1c-0.7-0.8-2.3,0.4-2.1,1.1C174.2,575.6,177.5,575,176,573.1z"/>
	<path class="st3" d="M70.5,507.2c-0.7-0.4-1-0.7-1.7,0.1c-0.5,0.6-0.6,1.1,0,1.6C70.1,509.8,71.5,507.8,70.5,507.2
		C70.3,507,70.9,507.4,70.5,507.2z"/>
	<path class="st3" d="M143.9,536.5c-1.4-1.1-2.5,0.9-1.4,1.8C143.6,539.2,145,537.3,143.9,536.5z"/>
	<path class="st3" d="M6.9,570.2c-0.4-0.5-0.8-1.2-1.6-1.1c-0.8,0.1-1,0.8-0.7,1.4C5.2,571.7,7.5,570.9,6.9,570.2z"/>
	<path class="st3" d="M112.4,523.5c0.8-0.2-0.1-1.1-0.4-1.1c-0.4-0.1-1.1,0.3-1.3,0.6c-0.3,0.5-0.2,1.1,0.4,1.2
		C111.3,524.3,112.2,523.5,112.4,523.5z"/>
	<path class="st3" d="M20.5,579.3c-1.9-1-2.6,2.7-0.7,2.7c0.9,0,1.1-0.4,1.2-1.1C21.2,579.9,20.9,580.1,20.5,579.3
		C20.3,579.2,20.5,579.4,20.5,579.3z"/>
	<path class="st3" d="M27.1,586.7c-1.5-1.2-3.7,1.5-1.1,2.1C27.4,589.1,28.4,587.8,27.1,586.7C26.5,586.3,27.3,586.9,27.1,586.7z"/>
	<path class="st3" d="M148.9,463c-1.5-1.2-3.7,1.5-1.1,2.1C149.2,465.3,150.2,464,148.9,463C148.3,462.5,149.1,463.1,148.9,463z"/>
	<path class="st3" d="M52.7,528.3c-1.5-1.2-3.7,1.5-1.1,2.1C53,530.6,54.1,529.3,52.7,528.3C52.2,527.8,52.9,528.4,52.7,528.3z"/>
	<path class="st3" d="M23.8,563.9c-1.3-0.9-2.2,0.4-1.3,1.5C23.7,566.8,25.5,565.1,23.8,563.9C23.5,563.7,24,564,23.8,563.9z"/>
	<path class="st3" d="M38.5,568c1.5-0.8-0.2-2.4-1.3-1.8C35.9,566.9,37,568.8,38.5,568z"/>
	<path class="st3" d="M114.6,588.7c-1.2-1-2.4,0.1-1.5,1.5C114,591.6,115.6,589.6,114.6,588.7C114.3,588.4,114.9,589,114.6,588.7z"
		/>
	<path class="st3" d="M84.6,577.4c1.5-0.3,1.2-2.9-0.3-3c-0.8,0-1.1,0.4-1.1,1.3C83.1,576.6,83.6,577.1,84.6,577.4
		C85.2,577.2,84.1,577.3,84.6,577.4z"/>
	<path class="st3" d="M85.6,475.7c-0.7-1.1-2.6-1.4-2.5,0.3C83.3,478.9,86.3,477.6,85.6,475.7C85.6,475.7,85.7,475.9,85.6,475.7z"/>
	<path class="st3" d="M23.9,550.2c-0.3-1.4-2.4-0.7-2.1,0.7c0.1,0.6,0.9,1.2,1.5,1C24.2,551.7,23.9,550.9,23.9,550.2
		C23.8,550,23.9,550.5,23.9,550.2z"/>
	<path class="st3" d="M4.3,579c-0.5-0.3-1.4-1-2-0.4c-0.5,0.5,0.1,1.5,0.5,1.9C4.2,581.6,5.1,579.5,4.3,579
		C4,578.8,4.6,579.2,4.3,579z"/>
	<path class="st3" d="M70.6,576.2c-0.3-0.4-0.5-0.8-1-0.9c-0.6-0.1-1.4,0.3-1.5,1C68.1,578.2,71.4,577.1,70.6,576.2z"/>
	<path class="st3" d="M48.1,592.6c1.1,1.2,1.8-0.7,0.9-1.6C47.7,589.7,47.4,591.8,48.1,592.6z"/>
	<path class="st3" d="M167.6,476.7c1.1,1.2,1.8-0.7,0.9-1.6C167.2,473.8,166.9,475.9,167.6,476.7z"/>
	<path class="st3" d="M57.9,508.7c-0.6-2.2,1.6-2.7,2.7-1.2C62.3,509.7,58.7,511,57.9,508.7C57.7,507.8,57.9,508.8,57.9,508.7z"/>
	<path class="st3" d="M53.2,594.1c-1.2-0.5-2.5,0.4-1.6,1.6C53,597.6,54.9,595,53.2,594.1z"/>
	<path class="st3" d="M57.9,595.3c-1.2-0.9-3.2-0.7-2.6,1.2C56,598.7,58.8,597.3,57.9,595.3C57.7,595.1,58,595.5,57.9,595.3z"/>
	<path class="st3" d="M31.6,581.5c-0.7-0.4-0.8-1.3-1.7-0.5c-0.6,0.5-0.7,1.6-0.2,2.2C31.1,585.5,33.4,582.5,31.6,581.5z"/>
	<path class="st3" d="M86.9,491.2c-1.4-1.3-2.9,0.5-1.9,1.9C86.3,495.2,88.2,492.4,86.9,491.2z"/>
	<path class="st3" d="M20.6,547.9c-0.1,1.8-3.1,1.7-3.1,0C17.6,545.8,20.2,546.3,20.6,547.9C20.6,548.1,20.5,547.6,20.6,547.9z"/>
	<path class="st3" d="M53.7,564.4c-2.3-0.8-2.3,3.2-0.5,3.1C54.9,567.3,54.6,565.3,53.7,564.4C53.6,564.4,53.7,564.4,53.7,564.4z"/>
	<path class="st3" d="M156.9,569.4c0.6,2.5-2.5,2-2.6,0.2c0-0.6,0.4-1.4,1.1-1.4C156.2,568.2,156.5,568.9,156.9,569.4
		C157,569.5,156.7,569.1,156.9,569.4z"/>
	<path class="st3" d="M20.1,591.1c0.8-0.1,1.1-0.3,1.5,0.4c0.5,1-0.1,1.6-1.1,1.7c-0.6,0-1.3-0.2-1.5-0.9
		C18.9,591.4,19.4,591.4,20.1,591.1C20.4,591.1,19.9,591.2,20.1,591.1z"/>
	<path class="st3" d="M95.6,551.8c0.4,2.1-3,1.5-3-0.1C92.6,549.9,95.4,550,95.6,551.8C95.7,552.3,95.5,550.9,95.6,551.8z"/>
	<path class="st3" d="M13.1,446.3c0.6-0.2,1.2-0.3,1.7,0c0.6,0.4,0.9,1.6,0.1,2C13.9,448.9,11.7,446.8,13.1,446.3
		C13.3,446.3,13.3,446.3,13.1,446.3C14.1,446,13.4,446.2,13.1,446.3z"/>
	<path class="st3" d="M34.9,493.4c-0.6-0.4-0.9-0.6-1.5-0.4c-1,0.4-0.8,1-0.2,1.6C34.3,495.8,36.4,494.4,34.9,493.4z"/>
	<path class="st3" d="M54.4,587.5c-1,0-2.6-2.2-1.1-2.8c0.4-0.2,1.5,0.6,1.6,1C55.3,586.4,55,587,54.4,587.5
		C54.3,587.5,54.6,587.4,54.4,587.5z"/>
	<path class="st3" d="M51.2,560.6c-0.2-1.3,1.2-2.1,2-0.7C54,561.5,51.4,562.5,51.2,560.6C51.1,560.3,51.2,561,51.2,560.6z"/>
	<path class="st3" d="M177,500.3c1.4-0.6,2.3,1.2,1,2.1C176.9,503.2,175.2,500.7,177,500.3C177.7,500,176.6,500.4,177,500.3z"/>
	<path class="st3" d="M10.9,567.8c0,1.4-2.2,1.7-2.4,0.3C8.3,566.7,10.6,566.5,10.9,567.8C10.9,568.5,10.9,567.7,10.9,567.8z"/>
	<path class="st3" d="M29.1,572.2c-0.7,0.3-2.7-1.7-1.2-1.8C29.1,570.3,29.4,571.7,29.1,572.2z"/>
	<path class="st4" d="M72.7,585.5c-0.8-0.2-1.9-1-2.5,0.1c-0.3,0.6,0.2,1.7,0.6,2.1C72.5,589.7,74.8,587,72.7,585.5
		C72.4,585.4,73.2,585.9,72.7,585.5z"/>
	<path class="st4" d="M141.6,565.9c2.5-0.6,1.4-3.4-0.4-2.8C140.1,563.5,140.8,565.7,141.6,565.9
		C141.8,565.9,141.4,565.8,141.6,565.9z"/>
	<path class="st4" d="M53.5,592.1c-0.4,1.6,1.9,1.9,2.7,1C57.5,591.4,54.5,591.1,53.5,592.1C53.4,592.3,54.1,591.5,53.5,592.1z"/>
	<path class="st4" d="M50.6,583.6c-0.9,0.1-1.5,0.4-1.1,1.4c0.2,0.5,0.7,1,1.2,1C52.4,586.2,52.1,583.3,50.6,583.6
		C50.3,583.6,51.3,583.4,50.6,583.6z"/>
	<path class="st4" d="M46.3,579.3c0.8,0.2,2.2-0.8,1.9-1.7C47.8,575.8,45.5,577.5,46.3,579.3C46.3,579.3,46.1,578.8,46.3,579.3z"/>
	<path class="st4" d="M35.2,584.5c0.8-0.9-0.4-1.9-1.2-1.4C32.3,583.9,34,585,35.2,584.5C35.2,584.4,35.1,584.5,35.2,584.5z"/>
	<path class="st4" d="M113,584c1.9,1.1,2.5-2.7,0.3-2.8C112,581.1,111.3,583.8,113,584C113,584,113,584,113,584z"/>
	<path class="st4" d="M16.7,582.1c1.3-0.1,1.7-2.1,0-1.6C15.8,580.8,15.4,582.3,16.7,582.1C17.2,582.1,16.2,582.2,16.7,582.1z"/>
	<path class="st4" d="M37.3,526.7c0.2-2.2-2.8-0.7-2.1,1C35.7,529.2,37.2,527.6,37.3,526.7z"/>
	<path class="st4" d="M39.6,570.4c0.7-0.2,1.3-0.2,1.3-0.9c0-0.7-1-1.2-1.6-1.1C38.2,568.7,38.1,570.8,39.6,570.4
		C39.9,570.3,39.2,570.5,39.6,570.4z"/>
	<path class="st4" d="M47.7,566.2c-0.5-2.1-3.2-1.9-2.6,0.5C45.7,568.9,48.3,568.5,47.7,566.2C47.7,566,47.8,566.5,47.7,566.2z"/>
	<path class="st4" d="M6.6,578.8c-1.5-0.3-2,3-0.4,3.3C8.1,582.3,8.3,579.1,6.6,578.8z"/>
	<path class="st4" d="M33.1,573.8c-1.1-0.2-1.8,1.7-0.6,2.2c0.6,0.2,1,0,1.3-0.5C34.1,574.6,33.6,574.3,33.1,573.8
		C33,573.7,33.3,574,33.1,573.8z"/>
	<path class="st4" d="M38.4,578c-0.6-0.5-1-0.9-1.8-0.5c-0.8,0.3-0.9,1.1-0.4,1.7C37.3,580.2,39.3,578.7,38.4,578z"/>
	<path class="st4" d="M14.2,578.3c-0.5-0.8-2.5-1.1-2.4,0.3C11.9,580.1,15,579.5,14.2,578.3z"/>
	<path class="st4" d="M34.8,566.6c-0.8-1.1-3.9-0.7-3,1C32.7,569.2,36,568.2,34.8,566.6z"/>
	<path class="st4" d="M121.9,529.3c-1.3-0.1-2.1,2.5-0.9,3.3c0.7,0.4,1.9-0.5,2.2-1.1C123.4,530.8,122.9,529.4,121.9,529.3z"/>
	<path class="st4" d="M178.4,543.7c0.7,0.8,2,0.4,1.9-0.7C180.1,541.5,177.6,542.1,178.4,543.7C178.6,543.9,178.4,543.6,178.4,543.7
		z"/>
	<path class="st4" d="M220.9,533.4c1.2,0.2,0.6-2.8-0.9-2.4C218.4,531.5,219.5,533.5,220.9,533.4
		C221.2,533.4,220.9,533.4,220.9,533.4z"/>
	<path class="st4" d="M61,541.4c0.4-0.9-0.7-2-1.6-2C57.1,539.6,60,543.5,61,541.4z"/>
	<path class="st4" d="M41.6,487.1c1.3,0.6,2.4-1.3,1.6-2.4C41.2,482,39.8,486.2,41.6,487.1z"/>
	<path class="st4" d="M7.3,572c-0.6-0.1-1.3-0.5-1.9-0.1c-0.7,0.5-0.6,1.7-0.1,2.2C6.9,575.8,8.8,573.1,7.3,572
		C7.2,572,7.6,572.2,7.3,572z"/>
	<path class="st4" d="M15.4,571.3c-1-2.1-3.4-0.1-1.9,1.4C14.7,573.9,16.1,572.7,15.4,571.3z"/>
	<path class="st4" d="M13.4,473.4c-0.6-0.1-1.3-0.8-1.8-0.3c-0.3,0.3-0.4,1.4-0.2,1.8C12.3,476.7,15.4,474.3,13.4,473.4
		C13.3,473.4,13.6,473.5,13.4,473.4z"/>
	<path class="st4" d="M66.6,588.7c-1.4-1.6-2.3,0.9-1.3,1.9C66.6,592.2,67.7,590.1,66.6,588.7C66.5,588.6,66.9,589.1,66.6,588.7z"/>
	<path class="st4" d="M25.9,589.9c-0.5-0.4-1.5-1.2-2.2-1c-1,0.3-0.8,1.4-0.4,2C24.6,592.4,26.8,590.7,25.9,589.9
		C25.3,589.4,26.1,590,25.9,589.9z"/>
	<path class="st4" d="M82.3,530.4c0.3-0.3,0.4-0.9,0.3-1.4c-0.1-0.4-0.6-0.9-1-1.1c-0.7-0.4-0.9-0.2-1.3,0.2
		C78.7,529.4,80.7,532.3,82.3,530.4z"/>
	<path class="st4" d="M23.4,474.4c-0.4-0.2-1-0.8-1.5-0.6c-0.8,0.3-0.6,1.7-0.1,2.2C22.9,477.3,25.4,475.4,23.4,474.4z"/>
	<path class="st4" d="M116.3,257.9c-1.8-1.4-3.2,2.2-1.1,2.2C116.2,260,117.3,258.7,116.3,257.9
		C116.2,257.7,116.5,258.1,116.3,257.9z"/>
	<path class="st4" d="M54.3,551.5c-0.6-1.1-2.4,0.8-1.1,2.1c0.5,0.5,1.1,0.9,1.6,0C55.1,553,54.6,552.1,54.3,551.5z"/>
	<path class="st4" d="M0.1,582.2c-0.8,0-1.5-0.2-1.3,1.1c0.1,0.5,0.4,1.1,1.1,1C0.7,584.2,1.2,582.3,0.1,582.2z"/>
	<path class="st4" d="M185.9,449.4c-0.8,0-1.5-0.2-1.3,1.1c0.1,0.5,0.4,1.1,1.1,1C186.6,451.4,187,449.4,185.9,449.4z"/>
	<path class="st4" d="M8.2,592.9c0-0.8-1.3-1.5-1.9-1.1C4.5,592.9,8.3,595.1,8.2,592.9C8.2,592.4,8.2,593.3,8.2,592.9z"/>
	<path class="st4" d="M2.7,557.2c-1.6-0.2-1.1,2.4,0.2,2.2C4.5,559.2,4.1,557.3,2.7,557.2z"/>
	<path class="st4" d="M62.8,563.2c-1.8-0.7-1.8,2.2-0.5,2.5C63.9,566.2,63.4,563.8,62.8,563.2C62.7,563.1,62.8,563.2,62.8,563.2z"/>
	<path class="st4" d="M102.3,538.2c-1.1-0.8-3-0.4-1.8,1.1C101.7,540.9,104.6,539.9,102.3,538.2
		C101.7,537.8,102.7,538.5,102.3,538.2z"/>
	<path class="st4" d="M51.3,489.4c-0.8-0.6-2.2-0.3-1.4,0.8C50.8,491.4,53,490.6,51.3,489.4C50.8,489.1,51.6,489.6,51.3,489.4z"/>
	<path class="st4" d="M46.3,547.4c-0.5-1.5-3.3-0.5-2,0.9C45,549,46.6,548.5,46.3,547.4z"/>
	<path class="st4" d="M3.9,568.7c-0.1-1.5-2.9-2.1-2.7-0.4C1.3,569.3,3.4,569.3,3.9,568.7C3.9,568.4,3.9,568.8,3.9,568.7z"/>
	<path class="st4" d="M12.9,587.1c-1.4-1.2-3.5,0.3-2.2,1.8C12.3,590.7,13.8,587.8,12.9,587.1z"/>
	<path class="st4" d="M43.9,591.6c0-0.8-2-2.2-2-0.5C41.9,592,43.8,592.8,43.9,591.6C43.9,591.6,43.9,591.9,43.9,591.6z"/>
	<path class="st4" d="M26.3,578.4c1-0.4,0.6-1.8,0-2.3C24.1,574.1,23.6,579.5,26.3,578.4z"/>
	<path class="st4" d="M36.1,592.1c1.9-0.7-0.9-3-1.4-1.6C34.4,591.2,35.4,592.4,36.1,592.1z"/>
	<path class="st4" d="M9.4,564.3c-0.2-0.8-3.6,0.2-1.8,2.1c0.5,0.5,1.1,0.5,1.7-0.1C9.9,565.7,9.6,565,9.4,564.3z"/>
	<path class="st4" d="M136.6,592.1c-0.5-0.6-1.6-1.2-2.2-0.4c-0.5,0.6,0.4,2,0.8,2.4C136.7,595.3,137.7,593.5,136.6,592.1z"/>
	<path class="st4" d="M157.2,414.2c-0.7-1.1-2.5-0.7-2.1,0.7C155.6,416.7,157.9,415.2,157.2,414.2z"/>
	<path class="st4" d="M39.3,563.5c-1.8-0.8-2.1,1.9-0.4,2.7C40.8,567,40.8,564.1,39.3,563.5C39.1,563.4,40.1,563.8,39.3,563.5z"/>
	<path class="st4" d="M19.3,595.9c-0.4-0.4-1-1.5-1.6-1.3c-0.6,0.1-0.6,1.3-0.4,1.9C17.9,597.9,20.2,597,19.3,595.9
		C19.1,595.6,19.5,596.2,19.3,595.9z"/>
	<path class="st4" d="M335.3,440.7c1.2-1.2,0-4-1.5-2.7C332.2,439.4,334,440.4,335.3,440.7C335.4,440.6,335.3,440.7,335.3,440.7z"/>
	<path class="st4" d="M36,562.9c0.4-1.3-1.6-2.7-2.5-1.3c-0.3,0.5-0.3,1.5,0.1,2C34.2,564.4,35.3,563.5,36,562.9
		C36.1,562.6,35.4,563.5,36,562.9z"/>
	<path class="st4" d="M22.8,346.4c-0.6-1.7-3-0.3-2.1,1.2C21.6,348.9,23.3,347.7,22.8,346.4C22.7,346,22.9,346.5,22.8,346.4z"/>
	<path class="st4" d="M102.9,545.3c-1.2-1-3.4-0.6-2,1.1c0.4,0.4,0.6,0.8,1.2,0.7C102.7,546.9,103.4,545.7,102.9,545.3
		C102.4,544.9,103.1,545.4,102.9,545.3z"/>
	<path class="st4" d="M61.6,581c-1.7-0.5-1.5,2-0.3,2.3C62.8,583.7,62.2,581.2,61.6,581z"/>
	<path class="st4" d="M4.9,498.4c1.1,0.3,2.2-0.6,1.1-1.5C4.7,495.7,3,497.8,4.9,498.4C5,498.4,4.4,498.2,4.9,498.4z"/>
	<path class="st4" d="M262.3,559.9c-0.5-1.1-2.9-1.7-2.1,0.2C260.7,561.2,262.9,561.1,262.3,559.9z"/>
	<path class="st4" d="M21.6,529.3c0.7,2.2-2.9,2.6-3.1,0.4c-0.1-0.6,0.8-1.7,1.3-1.9C20.9,527.5,21.4,528.4,21.6,529.3
		C21.7,529.5,21.5,528.9,21.6,529.3z"/>
	<path class="st4" d="M27.5,558.2c-1,1.7-2.7,1.2-2.9-0.8c-0.1-0.8,0.3-1.5,1.1-1.6C27.1,555.7,27.2,557.2,27.5,558.2
		C27.3,558.4,27.4,557.7,27.5,558.2z"/>
	<path class="st4" d="M94.2,523.2c1,0.3,4,2.5,2,3.6c-0.7,0.4-1.7-0.6-2.1-1.1C93.1,524.6,93.3,524.5,94.2,523.2
		C95.1,523.5,93.9,523.6,94.2,523.2z"/>
	<path class="st4" d="M19.1,589.6c-0.4-2,2.7-2.2,3-0.4C22.5,591.3,19.6,591.5,19.1,589.6C19,589.2,19.1,589.8,19.1,589.6z"/>
	<path class="st4" d="M54.2,583.2c-1.2,0.3-2.6-2.6-0.7-3.1c0.6-0.1,2,0.5,2.1,1.2C55.7,582.1,54.7,583,54.2,583.2
		C53.7,583.4,54.3,583.2,54.2,583.2z"/>
	<path class="st4" d="M98.5,570.2c-0.3-2,3.2-1.4,2.7,0.8c-0.2,0.9-0.9,1.1-1.7,0.8C98.7,571.5,98.7,571.1,98.5,570.2
		C98.5,570.2,98.7,570.7,98.5,570.2z"/>
	<path class="st4" d="M29.9,500.6c0.4,1.8-2.2,2.3-2.7,0.5C26.7,498.9,29.3,498.5,29.9,500.6C30.1,501.3,29.9,500.4,29.9,500.6z"/>
	<path class="st4" d="M60.4,557.1c0.7,1.9-2.8,2.4-2.5-0.1C58.2,555.1,60,555.5,60.4,557.1C60.6,557.6,60.4,557,60.4,557.1z"/>
	<path class="st4" d="M66.3,575.1c0.2,0.9,0.6,1.7-0.3,2.3c-0.8,0.6-1.7,0.1-2.1-0.7c-0.2-0.6-0.2-1.5,0.4-1.9
		C64.9,574.4,65.7,574.9,66.3,575.1C66.4,575.5,65.8,574.9,66.3,575.1z"/>
	<path class="st4" d="M61.5,446.7c-0.5-0.2-1.6-0.6-2.1,0c-0.4,0.5,0.1,1.6,0.5,1.9c0.6,0.5,1.5,0.4,1.9-0.3
		C62.3,447.7,61.9,447.3,61.5,446.7C61.2,446.6,61.7,447,61.5,446.7z"/>
	<path class="st4" d="M13.4,564.9c0.5-0.8,0.6-1.2,1.4-0.7c0.5,0.3,1.1,1.3,1,2c-0.1,0.5-0.7,1.1-1.2,1.1
		C13.5,567.1,13.5,565.6,13.4,564.9C13.6,564.6,13.5,565.4,13.4,564.9z"/>
	<path class="st4" d="M252.9,513.1c-1.7,0.2-1.3,2.8,0.4,2.8c0.8,0,0.9-0.3,1-1C254.4,513.9,253.6,513.5,252.9,513.1
		C252.8,513.1,253.3,513.3,252.9,513.1z"/>
	<path class="st4" d="M98.8,448.4c0.8,0.6,2.2,3.2,0.1,3c-0.5,0-1.5-0.7-1.6-1.2C97.1,449.3,98.3,448.7,98.8,448.4
		C99.1,448.6,98.5,448.6,98.8,448.4z"/>
	<path class="st4" d="M15.2,557.9c-1.4-1.2-3.9,0.9-2.1,1.9C14.4,560.4,16.6,559.1,15.2,557.9z"/>
	<path class="st4" d="M83.5,543.4c0.5,0.1,1.6,0.2,1.9,0.7c0.4,0.7-0.2,1.8-0.9,1.9c-0.6,0.1-1.3-0.3-1.5-0.8
		C82.6,544.4,83,544.2,83.5,543.4C83.9,543.5,83.3,543.7,83.5,543.4z"/>
	<path class="st4" d="M26.2,543.7c-0.8,0.2-0.6,0.8-1.5,0.6c-0.6-0.1-1.6-0.9-1.4-1.6c0.2-0.6,1.1-0.9,1.7-0.7
		C25.9,542.2,26.1,543.3,26.2,543.7z"/>
	<path class="st4" d="M18.8,459.4c0.1-0.7,0.4-1.3-0.4-1.8c-0.4-0.3-1.9-0.3-2.2,0.2C15.5,459.1,17.8,460.4,18.8,459.4
		C18.9,459.2,18.7,459.5,18.8,459.4z"/>
	<path class="st4" d="M46.3,515.1c-0.5-0.8-1.1-1.4-2.1-0.9c-0.7,0.4-0.7,0.9-0.3,1.5C44.7,516.8,47.4,516.7,46.3,515.1z"/>
	<path class="st4" d="M65.7,530.6c0.7-0.2,1.3-0.3,1.7,0.3c0.4,0.5,0.4,1.5-0.2,1.9C66.1,533.5,63.9,531.2,65.7,530.6
		C66.1,530.5,65.7,530.6,65.7,530.6z"/>
	<path class="st4" d="M20.1,556.5c-0.8-0.6-1.3-1.1-2.1-0.4c-0.8,0.7-0.7,1.5,0.3,1.9c0.4,0.2,0.7,0.3,1.2,0.1
		C19.9,558,20.7,557,20.1,556.5C19.7,556.3,20.3,556.7,20.1,556.5z"/>
	<path class="st4" d="M117,551.1c0.4,1.5-2.1,2-2.6,0.6C113.8,549.9,116.7,549.5,117,551.1C117.2,551.6,117,550.7,117,551.1z"/>
	<path class="st4" d="M73.2,428c-0.5-0.4-1.1-0.6-1-1.3c0.1-0.6,0.8-1,1.4-1c0.4,0,1.7,0.7,1.6,1.2C75.2,427.7,73.8,427.8,73.2,428
		C72.9,427.8,73.8,427.8,73.2,428z"/>
	<path class="st4" d="M61.2,570.2c1.4-0.1,2,2.2,0.5,2.5C60,573,59.4,570.8,61.2,570.2C61.3,570.2,61.1,570.2,61.2,570.2z"/>
	<path class="st4" d="M0.3,576.2c0.9-0.2,1.7-0.7,2.2,0.2c0.2,0.4,0.3,1.1-0.1,1.4C1.3,579,0.4,576.8,0.3,576.2z"/>
	<path class="st4" d="M0.9,588.6c0,1.4-2.2,1.7-2.4,0.3C-1.7,587.5,0.6,587.3,0.9,588.6C0.9,589.2,0.9,588.5,0.9,588.6z"/>
	<path class="st4" d="M72.6,555.8c0.1-0.1,1.1-0.2,1.2-0.3c0.8-0.6,0.3-1.5-0.3-2C70.9,551.4,70.8,557.6,72.6,555.8
		C72.7,555.7,72.2,556.1,72.6,555.8z"/>
	<path class="st4" d="M77.9,562.1c-0.4-0.4-1.5-1.7-1.8-0.2c-0.1,0.8,0.5,1.9,1.3,2.2C78.5,564.5,78.7,562.9,77.9,562.1z"/>
	<path class="st4" d="M94.4,581c-0.4-0.4-1.5-1.7-1.8-0.2c-0.1,0.8,0.5,1.9,1.3,2.2C94.9,583.4,95.1,581.8,94.4,581z"/>
	<path class="st4" d="M158.9,535.1c1.2-0.3,1.6,2,0.2,2.1C157.7,537.3,157.7,535.4,158.9,535.1C159,535,158.5,535.2,158.9,535.1z"/>
	<path class="st5" d="M88.8,551c0.6,1.1,1.4,0.4,1.5-0.4C90.4,548.8,87.8,549.2,88.8,551C89.1,551.5,88.6,550.6,88.8,551z"/>
	<path class="st5" d="M69.4,591c-1.4-1.6-2.8,0.8-1.9,2.2C68.8,595.1,70.6,592.4,69.4,591z"/>
	<path class="st5" d="M51.2,586.8c-0.5-0.4-1.2-0.7-1.9-0.5c-0.7,0.2-1.5,1-0.9,1.9C49.6,590,52.6,587.8,51.2,586.8z"/>
	<path class="st5" d="M22.7,560.4c-0.4-1.2-2.6-1.8-3-0.2C19.2,562.3,23.4,562.3,22.7,560.4z"/>
	<path class="st5" d="M42.3,567.6c-1.1-1.2-2,2-0.5,2.2C43.4,570.1,42.8,568.2,42.3,567.6z"/>
	<path class="st5" d="M36.7,575.5c-0.5-0.9-2.9-0.2-3,0.8c-0.1,1.2,0.6,0.8,1.4,0.6C35.8,576.7,37.3,576.6,36.7,575.5z"/>
	<path class="st5" d="M41.7,588.8c-0.4-1.8-2.8-0.8-2.3,0.5c0.1,0.4,1.3,1.1,1.7,1C42.1,590.2,41.8,589.4,41.7,588.8z"/>
	<path class="st5" d="M12.7,573.8c-0.5-1.3-2.3-0.7-1.7,0.8C11.7,576.3,13.4,575.6,12.7,573.8z"/>
	<path class="st5" d="M43.7,537.7c-1.6-0.8-2.8,0.7-1.9,2.1C43,541.9,45.1,539.3,43.7,537.7C43.6,537.7,43.7,537.8,43.7,537.7z"/>
	<path class="st5" d="M163.5,464.4c0.5-1.6-1.7-3.7-2.7-1.6C159.9,464.5,162.9,466.3,163.5,464.4
		C163.5,464.3,163.3,465.1,163.5,464.4z"/>
	<path class="st5" d="M71.8,541c0.5-1.6-1.7-3.7-2.7-1.6C68.3,541.1,71.3,542.9,71.8,541C71.9,540.8,71.6,541.6,71.8,541z"/>
	<path class="st5" d="M14.4,590.1c-1-0.2-4-0.4-2.5,1.6C13.4,593.7,15.2,590.3,14.4,590.1z"/>
	<path class="st5" d="M105.7,583.5c-0.8-0.5-1.3-1.3-1.9-0.4c-0.3,0.4-0.7,1.9-0.4,2.3c0.3,0.6,1.5,0.9,2.1,0.5
		C106.2,585.4,105.9,584.3,105.7,583.5C105.2,583.2,105.8,583.9,105.7,583.5z"/>
	<path class="st5" d="M3,585.7c-0.2-1.4-2.3-2.1-2.8-0.4C-0.2,586.9,3.3,587.7,3,585.7C3,585.4,3,585.9,3,585.7z"/>
	<path class="st5" d="M247.3,488.5c0.4-0.9-3.3-1.1-1.7,0.6C246.3,489.8,246.9,489.4,247.3,488.5z"/>
	<path class="st5" d="M17.4,568.4c0.1-0.9-2-1.1-1.8,0.1c0.1,0.4,1.3,1.3,1.7,1.1C18.2,569.4,17.4,568.8,17.4,568.4z"/>
	<path class="st5" d="M57.3,572.3c1.9-0.9,3,2.9,1,3.5c-0.6,0.2-1.6-0.6-1.9-1.1C56,573.8,56.5,572.6,57.3,572.3
		C57.4,572.2,57.2,572.3,57.3,572.3z"/>
	<path class="st5" d="M74.4,577.4c1.9-0.9,3,2.9,1,3.5c-0.6,0.2-1.6-0.6-1.9-1.1C73.2,578.9,73.7,577.7,74.4,577.4
		C74.5,577.3,74.4,577.4,74.4,577.4z"/>
	<path class="st5" d="M12.6,562.1c0.4,2.6-2.5,2.4-2.6,0.3C9.8,560.1,12.1,560.4,12.6,562.1C12.6,562.2,12.5,561.9,12.6,562.1z"/>
	<path class="st5" d="M215.8,564.7c0.1,0.6-0.6,1.7-1.3,1.9c-0.8,0.1-1.9-1.1-1.9-1.8C212.6,563.2,215.5,563.2,215.8,564.7
		C215.9,565.1,215.8,564.6,215.8,564.7z"/>
	<path class="st5" d="M88.9,538.5c0.1-0.7,0.2-1.5,1-1.8c0.7-0.3,1.9,0.2,2,1.2c0.1,0.9-0.6,1.5-1.4,1.5
		C89.6,539.5,89.5,539.1,88.9,538.5C89,538.2,89.1,538.7,88.9,538.5z"/>
	<path class="st5" d="M130,495.3c-0.4-2,2.2-2.4,2.6-0.6C133,496.5,130.2,497,130,495.3C129.9,495.1,130.1,496,130,495.3z"/>
	<path class="st5" d="M16.2,587c0.6,2-2.9,1.9-2.5-0.4C14.1,584.9,15.9,585.5,16.2,587C16.4,587.6,16.2,586.9,16.2,587z"/>
	<path class="st5" d="M86.9,502.5c-1-1.5-3.6-1.9-2.6,0.6C85,505,87.3,503.1,86.9,502.5z"/>
	<path class="st5" d="M34.2,557.1c-1-1.5-3.6-1.9-2.6,0.6C32.3,559.6,34.6,557.7,34.2,557.1z"/>
	<path class="st5" d="M158.4,583.5c-0.6-2.1,2.8-1.6,2.7,0.2C161,585.6,158.7,585,158.4,583.5C158.3,583.1,158.6,584.4,158.4,583.5z
		"/>
	<path class="st5" d="M48.8,562.6c-0.6-2.1,2.8-1.6,2.7,0.2C51.4,564.7,49.1,564.1,48.8,562.6C48.7,562.2,49,563.5,48.8,562.6z"/>
	<path class="st5" d="M67.7,554c-0.4-0.6-0.8-1.1-1.6-1.1c-0.5,0-1.5,0.5-1.5,1.1C64.4,556.2,68.7,555.6,67.7,554
		C67.6,553.8,67.8,554.1,67.7,554z"/>
	<path class="st5" d="M300.6,595.1c-0.6-0.2-1.5-0.6-2.1-0.2c-0.7,0.4-0.6,1.6,0,2C299.8,598,301.6,595.4,300.6,595.1z"/>
	<path class="st5" d="M125.7,472.1c1.3-0.2,2.6,1.6,1.3,2.4C125.2,475.5,123.5,472,125.7,472.1C126.1,472,125.2,472.1,125.7,472.1z"
		/>
	<path class="st5" d="M82.1,583.5c-2-0.3-2,2.2-0.1,2.2C83.6,585.6,83.8,583.7,82.1,583.5C81.9,583.4,82.8,583.5,82.1,583.5z"/>
	<path class="st5" d="M12.7,582.9c-1.3-1.2-3-0.2-1.9,1.4C11.9,586,13.4,584.1,12.7,582.9C12.7,582.9,12.8,583,12.7,582.9z"/>
	<path class="st5" d="M118.6,551.3c1.1,0,3.1,1.9,1.2,2.4C118.8,553.9,117.2,551.9,118.6,551.3C118.7,551.3,118.2,551.5,118.6,551.3
		z"/>
	<path class="st5" d="M207.6,590.6c0.4-1,0.3-0.9-0.1-1.4c-0.4-0.5-1-0.9-1.4-0.4C205.2,589.7,206.7,592.8,207.6,590.6z"/>
	<path class="st6" d="M72.5,580.4c-0.7-0.3-2.2,0.7-1.8,1.2C71.6,582.9,73.7,580.9,72.5,580.4z"/>
	<path class="st6" d="M47.5,587.2c-0.6-0.4-0.6-0.6-1.3-0.4c-0.6,0.2-1.1,1.1-0.9,1.7C46.2,590.9,49,588.2,47.5,587.2z"/>
	<path class="st6" d="M25.7,514.9c-0.4-0.7-2.2-2-2.6-0.4C22.8,516.3,26.7,516.7,25.7,514.9z"/>
	<path class="st6" d="M62.3,483.7c-0.5-1.3-3.2,0.2-1.9,1.8c0.3,0.3,1,0.5,1.4,0.4C62.8,485.7,62.6,484.7,62.3,483.7z"/>
	<path class="st6" d="M45.6,571.1c-0.2-0.4-1.2-0.2-1.5-0.1c-0.4,0.2-0.9,0.6-0.9,1.2c0,0.8,1,2.2,1.9,1.8
		C46.1,573.6,45.8,571.8,45.6,571.1C45.6,571.1,45.7,571.4,45.6,571.1z"/>
	<path class="st6" d="M38.5,583.6c-0.6-0.5-0.6-1.2-1.5-0.7c-0.3,0.2-0.6,0.7-0.6,1.1C36.4,585.6,38.5,584.7,38.5,583.6
		C38.3,583.3,38.5,583.7,38.5,583.6z"/>
	<path class="st6" d="M35.1,571.4c0.8-1.4-0.2-3.4-1.8-2.4C31.7,570.1,33.8,572,35.1,571.4C35.6,570.6,35,571.5,35.1,571.4z"/>
	<path class="st6" d="M71.7,566c-0.5-1.8-2.9,0.3-2.2,1.9c0.3,0.8,1,1,1.8,0.7C72.5,568.1,72,567,71.7,566
		C71.7,565.8,71.9,566.6,71.7,566z"/>
	<path class="st6" d="M3.4,595c-0.7-0.2-1.5-0.5-1.9,0.3c-0.2,0.4,0,1.5,0.4,1.8C3.3,598.2,5.8,595.5,3.4,595
		C2.9,594.9,3.8,595.1,3.4,595z"/>
	<path class="st6" d="M94.3,536.1c-1-1.4-2.8-1.3-2.2,0.8C92.6,539,95.5,537.7,94.3,536.1z"/>
	<path class="st6" d="M20.8,570.4c-0.4-1.2-2.2-0.7-2,0.7C19.1,573,21.3,572.2,20.8,570.4C20.7,570.2,20.9,570.9,20.8,570.4z"/>
	<path class="st6" d="M210.4,458.1c-1.3-1.1-2.7,0.4-1.5,1.6C210,460.6,211.1,458.7,210.4,458.1
		C210.1,457.8,210.6,458.3,210.4,458.1z"/>
	<path class="st6" d="M251.7,381.5c-1.4-1.3-2.6,1.4-1.1,2.2C252.4,384.7,252.9,382.6,251.7,381.5
		C251.3,381.1,252.1,381.8,251.7,381.5z"/>
	<path class="st6" d="M1.2,517.3c0.6-0.7,1.1-2.7-0.4-2.6C-0.9,514.9-0.1,517.3,1.2,517.3C1.5,517,1.1,517.3,1.2,517.3z"/>
	<path class="st6" d="M8,550.1c-0.8-0.3-1.6-0.6-2.1,0.2c-0.4,0.6-0.1,2.1,0.5,2.5C7.9,554.2,8.4,551.1,8,550.1
		C7.6,550,8.3,551,8,550.1z"/>
	<path class="st6" d="M44.3,522.1c-0.6-0.4-1.5-0.8-2,0c-0.5,0.8,0.8,2.4,1.6,2.4C45,524.4,44.9,522.5,44.3,522.1z"/>
	<path class="st6" d="M17.5,591.2c-1.4-0.7-2.7,1.2-1.3,2.1C17.5,594.1,19.2,592,17.5,591.2z"/>
	<path class="st6" d="M26.4,583.7c-1.4-0.7-2.7,1.2-1.3,2.1C26.4,586.7,28.1,584.5,26.4,583.7z"/>
	<path class="st6" d="M20.7,554.3c-0.8-0.6-2.2-0.3-1.4,0.8C20.2,556.4,22.4,555.5,20.7,554.3C20.2,554,21,554.5,20.7,554.3z"/>
	<path class="st6" d="M94.8,595c-2.2-1.8-2.5,1-1.4,2.7C94.8,600.1,96.4,596.4,94.8,595C94.7,595,95.2,595.4,94.8,595z"/>
	<path class="st6" d="M4,569.7c-1.8-1.2-3.9,1.1-1.5,1.8C3.6,571.8,4.7,570.6,4,569.7C3.8,569.5,4.1,569.7,4,569.7z"/>
	<path class="st6" d="M29.3,579.2c-0.8-0.9-2.7-1.8-2.6,0.3C26.9,582.4,30.1,580.1,29.3,579.2C28.8,578.7,29.5,579.4,29.3,579.2z"/>
	<path class="st6" d="M77.9,588.8c-0.7-1.6,2-2.3,2.8-0.9c0.5,0.8,0.4,1.7-0.5,2.1C78.9,590.8,78.3,589.8,77.9,588.8
		C77.7,588.3,78,589.1,77.9,588.8z"/>
	<path class="st6" d="M130.1,524.2c0.5,2.3-2.9,1.9-3,0.1c0-0.8,0.4-1.8,1.2-1.8C128.9,522.4,130.3,524.1,130.1,524.2
		C130.1,524.3,130.1,524.2,130.1,524.2z"/>
	<path class="st6" d="M311.1,550.2c0.5,2.3-2.9,1.9-3,0.1c0-0.8,0.4-1.8,1.2-1.8C309.9,548.4,311.3,550.1,311.1,550.2
		C311.1,550.3,311.1,550.2,311.1,550.2z"/>
	<path class="st6" d="M49.1,543.5c0.5,2.3-2.9,1.9-3,0.1c0-0.8,0.4-1.8,1.2-1.8C47.9,541.8,49.3,543.5,49.1,543.5
		C49.1,543.6,49.1,543.5,49.1,543.5z"/>
	<path class="st6" d="M42.4,557.9c-2,0.4-2.5-3.1-0.5-3.1C43.8,554.7,44.7,557.6,42.4,557.9C41.6,558.1,43,557.8,42.4,557.9z"/>
	<path class="st6" d="M142.6,579.1c-2,0.5-2.1-3.1-0.1-3.1c1.2,0,2,1.3,1.4,2.3C143.7,578.7,142.7,579.4,142.6,579.1
		C140.6,579.5,142.6,579.1,142.6,579.1z"/>
	<path class="st6" d="M39.2,452.9c0.4,2.4-2.7,2.6-3,0.5c-0.1-0.6,1-1.8,1.6-2C38.8,451.3,39,452.2,39.2,452.9
		C39.2,453.1,39.1,452.7,39.2,452.9z"/>
	<path class="st6" d="M34.4,526.3c-1.2,0.2-3.1-2-1.4-2.8C34.4,522.8,36.4,525.6,34.4,526.3C34.2,526.4,34.6,526.3,34.4,526.3z"/>
	<path class="st6" d="M3.3,564.7c0.2,1.9-2.1,1.8-2.5,0.3c-0.2-0.6,0.3-2,1-2.1C2.8,562.7,3.1,564,3.3,564.7
		C3.3,564.9,3.2,564.4,3.3,564.7z"/>
	<path class="st6" d="M22.2,488.3c-1.6-2-3.8,0.6-2,1.8C21.6,491,22.7,489.6,22.2,488.3C22,488,22.3,488.4,22.2,488.3z"/>
	<path class="st6" d="M12.2,539.8c-1.6-2-3.8,0.6-2,1.8C11.6,542.5,12.6,541.2,12.2,539.8C12,539.6,12.2,540,12.2,539.8z"/>
	<path class="st6" d="M52,510.6c-0.1-0.9,0.5-1.3,1.4-1.2c0.7,0,0.9,0.3,1.1,0.9c0.2,0.6,0.1,1.6-0.6,1.8
		C53.1,512.3,52.1,511.3,52,510.6C52,510.2,52,511,52,510.6z"/>
	<path class="st6" d="M113.7,453.7c1.3-0.3,2.9,1.6,1.2,2.4C113.3,456.9,112.8,454.7,113.7,453.7
		C113.9,453.6,113.6,453.8,113.7,453.7z"/>
	<path class="st7" d="M41.9,514.4c1.5-0.4,0.1-3.2-1.3-1.9C39,513.8,40.9,514.2,41.9,514.4C42.2,514.3,41.8,514.4,41.9,514.4z"/>
	<path class="st7" d="M166.7,559.1c-0.6-1-2.6,0-2.1,1.2c0.2,0.6,1,1.1,1.6,0.8C167.3,560.7,167.1,559.8,166.7,559.1z"/>
	<path class="st7" d="M43.4,582.1c-0.8,0.4-0.3,1.3,0.3,1.8c0.4,0.4,1.2,0.8,1.7,0.4c0.7-0.6,0.1-2.6-0.6-2.5
		C44.5,581.8,43.7,581.9,43.4,582.1z"/>
	<path class="st7" d="M42.5,579.4c-0.4,0-1.3,0-1.6,0.5c-0.4,0.7,0.2,2,0.9,2.2C43.7,582.8,45.2,579.6,42.5,579.4z"/>
	<path class="st7" d="M40.6,575.1c-0.7-0.5-1.2-0.7-1.8-0.1c-0.6,0.4-0.8,1.2-0.4,1.8c0.4,0.5,1.3,0.7,1.8,0.4
		C41.1,576.7,40.6,575.9,40.6,575.1C40.2,574.9,40.6,575.3,40.6,575.1z"/>
	<path class="st7" d="M49.4,571.3c-1.2-1.5-2.2-2.6-2.6-0.1C46.1,575,50.5,572.6,49.4,571.3z"/>
	<path class="st7" d="M29.5,564.6c0.6-1.1-0.6-3.2-1.9-2.1c-0.5,0.4-0.6,1.3-0.2,1.8C27.9,565,28.7,564.7,29.5,564.6
		C29.7,564.2,29.4,564.6,29.5,564.6z"/>
	<path class="st7" d="M68.9,579c-0.9-2-3.8-1.2-2.4,1.1c0.4,0.7,0.8,1.1,1.7,0.6C68.7,580.4,69.2,579.5,68.9,579z"/>
	<path class="st7" d="M28.9,584.3c-1.5-0.4-2.2,1.6-0.5,2.1c0.8,0.2,1.3,0.1,1.7-0.8C30.5,584.6,29.9,584.6,28.9,584.3z"/>
	<path class="st7" d="M42.3,595.7c-0.6-0.4-1-0.7-1.6-0.1c-0.4,0.4-0.5,1.2-0.2,1.6C41.7,599.1,44,596.8,42.3,595.7
		C42.1,595.5,42.8,596,42.3,595.7z"/>
	<path class="st7" d="M11.8,592.8c-0.8-0.4-1.5-0.8-1.9,0.2c-0.2,0.5-0.1,1.3,0.1,1.7C11.2,597.3,13.9,594,11.8,592.8z"/>
	<path class="st7" d="M93.3,505.1c-1.5-0.2-2.3,1.8-0.7,2.3C94,507.8,94.6,505.7,93.3,505.1C93,505,93.8,505.3,93.3,505.1z"/>
	<path class="st7" d="M5.8,584.9c-1.1-0.8-2.2,0.4-1.5,1.5C5.3,587.8,7.6,586.1,5.8,584.9z"/>
	<path class="st7" d="M-0.3,569.9c-0.6-0.4-1.2-1-1.9-0.3c-0.5,0.5-0.2,1.5,0.5,1.9C-0.6,572.1,1.1,571-0.3,569.9z"/>
	<path class="st7" d="M33,590.2c-1.6-1.2-3.6-0.2-2.2,1.7C32,593.7,34.5,591.3,33,590.2C32.7,590,33.4,590.5,33,590.2z"/>
	<path class="st7" d="M29.1,593.2c-1.9-1-2,2.3-0.5,2.7C30.3,596.3,30.4,593.9,29.1,593.2z"/>
	<path class="st7" d="M103.5,589.4c-1.1-0.8-3.2-0.2-2.2,1.5C102.3,592.6,105.3,590.7,103.5,589.4
		C103.2,589.1,104,589.7,103.5,589.4z"/>
	<path class="st7" d="M19.3,542c1.4-0.6,1.6-2.7-0.2-2.5C17,539.7,17.7,541.9,19.3,542C19.5,541.9,19.2,542,19.3,542z"/>
	<path class="st7" d="M74.9,464.4c-0.2-1.5-3.4-0.3-1.9,1.3C73.8,466.7,75.4,465.6,74.9,464.4C74.8,464.2,75.1,464.9,74.9,464.4z"/>
	<path class="st7" d="M191.7,528.1c-0.4-1.6-2.6-1.1-2.1,0.7C190.1,530.4,192.1,529.6,191.7,528.1z"/>
	<path class="st7" d="M49.3,594.6c-0.1-0.8-1.5-2.4-2.2-1.3c-0.3,0.5,0.2,1.4,0.6,1.8C48.5,596,48.7,595.6,49.3,594.6
		C49.2,594.2,49.1,595,49.3,594.6z"/>
	<path class="st7" d="M52.3,532.7c0.7,2.2-2.9,2.6-3.1,0.4c-0.1-0.6,0.8-1.7,1.3-1.9C51.6,530.9,52,531.8,52.3,532.7
		C52.3,532.9,52.1,532.3,52.3,532.7z"/>
	<path class="st7" d="M73.3,392.4c0.7,1.8-2.8,2.5-2.7-0.2C70.7,389.7,73.3,390.4,73.3,392.4C73.5,393,73.3,391.6,73.3,392.4z"/>
	<path class="st7" d="M1.1,537.3c-0.1-0.6-0.7-1.7-0.3-2.2c0.5-0.7,2,0.1,2.4,0.6c0.5,0.6,0.5,1.3,0.1,1.9
		C2.7,538.7,1.9,537.9,1.1,537.3C0.9,536.6,1.5,537.6,1.1,537.3z"/>
	<path class="st7" d="M19.1,584c0.2-0.9,0.1-1.3,1-1.6c0.9-0.3,1.9,0.4,2.1,1.3C22.6,586,19.8,585.1,19.1,584
		C19.1,583.6,19.1,584,19.1,584z"/>
	<path class="st7" d="M191.1,524.1c-0.6-1.6,2.1-2.3,2.6-0.4C194.3,525.8,191.6,525.9,191.1,524.1
		C191,523.7,191.2,524.3,191.1,524.1z"/>
	<path class="st7" d="M155.9,595.5c0.6,2-2.3,1.5-2.7,0.1c-0.2-0.7,0-1.8,0.9-1.9C155.2,593.6,155.7,594.9,155.9,595.5
		C156.1,596,155.8,595.2,155.9,595.5z"/>
	<path class="st7" d="M57.1,576.9c0.5,0.6,1.3,1,1,1.8c-0.4,1-1.5,0.9-2.2,0.4C54.1,578,55.9,577,57.1,576.9
		C57.5,577.3,56.9,576.9,57.1,576.9z"/>
	<path class="st7" d="M60,545.6c1.4-0.3,2.5,2.3,0.6,2.6C59,548.5,57.7,546,60,545.6C60.3,545.6,59.3,545.7,60,545.6z"/>
	<path class="st7" d="M25.3,572.1c0.9-0.3,1.3-0.3,2.2,0.2c0.5,0.3,1.3,0.9,0.8,1.6c-0.3,0.5-1.5,0.5-1.9,0.3
		C25.4,573.9,25.6,572.5,25.3,572.1z"/>
	<path class="st7" d="M115.4,578.4c0.5,2-2.3,2.6-2.6,0.6C112.6,577.4,114.8,577,115.4,578.4C115.6,579.4,115.3,578.3,115.4,578.4z"
		/>
	<path class="st7" d="M12.1,569.5c-0.4-0.5-1.1-2.1,0.3-2.8c1.5-0.8,2.6,2,1.6,2.8C13.2,570.1,12.7,570,12.1,569.5z"/>
	<path class="st7" d="M40.5,546.8c0.5,1.8-2.3,1.6-2.6,0.2C37.6,545.4,40.1,545.3,40.5,546.8C40.7,547.4,40.5,546.5,40.5,546.8z"/>
	<path class="st7" d="M-0.8,468.4c0.7,0.2,3.2,0.8,2,2c-0.4,0.5-1.6,0.4-2,0.1C-1.6,469.9-1.2,469-0.8,468.4
		C-0.5,468.4-0.9,468.5-0.8,468.4z"/>
	<path class="st7" d="M29.3,575.2c-0.9-0.7-1.6,1.8-1,2.3c0.3,0.3,1.4,0.2,1.7-0.1C30.5,576.8,29.5,575.9,29.3,575.2
		C29.2,575.1,29.4,575.8,29.3,575.2z"/>
	<path class="st8" d="M51.4,579.9c-0.7-0.6-0.8-2-1.8-0.7c-0.5,0.6-0.6,1.7-0.2,2.4C50.6,583.7,53.1,581.6,51.4,579.9
		C51.2,579.7,51.8,580.3,51.4,579.9z"/>
	<path class="st8" d="M78.1,570.3c-1.4,0.7-0.1,2.6,1.2,2C80.8,571.5,79.7,569.4,78.1,570.3C77.6,570.5,78.6,570,78.1,570.3z"/>
	<path class="st8" d="M65.1,487c1.2-0.3,1.2-2.9-0.5-2.6C62.9,484.7,63.4,487.4,65.1,487z"/>
	<path class="st8" d="M25.5,579.6c-0.9-0.6-1.7-1.3-2.6-0.3c-0.2,0.2-0.4,0.6-0.4,0.9c0,0.7,1.2,1.7,1.9,1.6
		C25,581.7,26.1,580.1,25.5,579.6z"/>
	<path class="st8" d="M18.8,563.2c-0.4-1.8-2-0.8-1.7,0.7C17.6,565.7,19,564.7,18.8,563.2C18.8,563.1,18.8,563.4,18.8,563.2z"/>
	<path class="st8" d="M9.9,588.1c0.2-0.6,0.6-1.5,0.2-2.1c-0.4-0.6-1.6-0.8-2.2-0.3C6.4,587,8.3,589.1,9.9,588.1
		C10,587.8,9.8,588.1,9.9,588.1z"/>
	<path class="st8" d="M142.1,551.8c-0.2-1.2-0.3-1.5-1.6-1.3c-0.9,0.2-1.3,0.4-1.1,1.3C139.8,553.1,142.5,553.5,142.1,551.8z"/>
	<path class="st8" d="M57.3,528.7c-0.2-1.2-0.3-1.5-1.6-1.3c-0.9,0.2-1.3,0.4-1.1,1.3C55,530.1,57.6,530.5,57.3,528.7z"/>
	<path class="st8" d="M316.8,584.9c-1.3-0.2-2.5,1.6-0.8,2.1C317.8,587.7,318,585.9,316.8,584.9C316.6,584.9,317,585.1,316.8,584.9z
		"/>
	<path class="st8" d="M16.2,520.5c0.4-1.4-0.8-2.9-1.9-1.4C13.2,520.5,15.7,522.5,16.2,520.5z"/>
	<path class="st8" d="M99.1,575.3c2-0.5,2.6,3.3,0.7,3.6C97.8,579.1,97.2,575.8,99.1,575.3C99.6,575.1,99,575.3,99.1,575.3z"/>
	<path class="st8" d="M11.6,518.7c-0.7,0.1-2.1,0.5-2.3-0.6c-0.1-0.9,1.4-2,2.1-2.1c0.7,0,1.9,0.6,2,1.4
		C13.5,518.6,12.4,518.5,11.6,518.7C11.5,518.7,12.2,518.6,11.6,518.7z"/>
	<path class="st8" d="M165.6,555.3c0.7,2.4-2.4,2.4-3,0.8C161.9,553.9,164.8,553.2,165.6,555.3C165.9,556.3,165.6,555.4,165.6,555.3
		z"/>
	<path class="st8" d="M81.2,536.9c0.8,2.5-3,1.5-3.1-0.2C77.8,534.2,81.4,535.2,81.2,536.9C81.4,537.6,81.3,536.2,81.2,536.9z"/>
	<path class="st8" d="M65.7,594.1c0,0.9-0.3,1.8-1.4,1.7c-1-0.1-1.5-0.8-1.5-1.7C62.7,591.7,65.7,592.1,65.7,594.1
		C65.6,594.4,65.7,594,65.7,594.1z"/>
	<path class="st8" d="M12,554.3c0,0.9-0.3,1.8-1.4,1.7c-1-0.1-1.5-0.8-1.5-1.7C9.1,551.9,12.1,552.3,12,554.3
		C12,554.6,12,554.2,12,554.3z"/>
	<path class="st8" d="M29.7,536.5c0.2,0.9,0.6,1.5-0.4,2c-0.7,0.3-1.4,0.1-1.8-0.5c-0.3-0.4-0.7-1.7-0.4-2.1
		C27.6,535,29.1,536.2,29.7,536.5C29.8,537,29.3,536.3,29.7,536.5z"/>
	<path class="st8" d="M63.8,480.9c0.2,0.9,0.6,1.5-0.4,2c-0.7,0.3-1.4,0.1-1.8-0.5c-0.3-0.4-0.7-1.7-0.4-2.1
		C61.8,479.3,63.3,480.6,63.8,480.9C63.9,481.4,63.4,480.6,63.8,480.9z"/>
	<path class="st8" d="M66.3,572.6c1,1.1-2,2-2.8,1.4c-0.5-0.4-0.5-1.3,0-1.8C64.2,571.4,65.6,572,66.3,572.6
		C66.8,573.2,66.2,572.5,66.3,572.6z"/>
	<path class="st8" d="M57.7,564.4c-1.5,0.4-2.7-2.6-0.9-3C58.7,560.9,58.7,563.5,57.7,564.4C57.2,564.5,57.8,564.3,57.7,564.4z"/>
	<path class="st8" d="M60.9,498.4c0.3,2-2.5,1.1-2.8-0.4C57.7,495.9,60.7,496.9,60.9,498.4C60.9,498.6,60.8,497.9,60.9,498.4z"/>
	<path class="st8" d="M92.9,567.8c0.3,2-2.5,1.1-2.8-0.4C89.7,565.2,92.7,566.2,92.9,567.8C92.9,567.9,92.8,567.2,92.9,567.8z"/>
	<path class="st8" d="M80.4,507.1c0.3,2-2.5,1.1-2.8-0.4C77.2,504.5,80.1,505.6,80.4,507.1C80.4,507.3,80.3,506.6,80.4,507.1z"/>
	<path class="st8" d="M125.5,509.1c0.4-0.6,0.9-1.2,0.6-2c-0.3-0.7-1.2-1.1-1.9-0.6C122.7,507.5,124,509.6,125.5,509.1
		C125.7,508.9,125.4,509.2,125.5,509.1z"/>
	<path class="st8" d="M58.6,586.3c0.4-0.6,0.9-1.2,0.6-2c-0.3-0.7-1.2-1.1-1.9-0.6C55.8,584.7,57,586.8,58.6,586.3
		C58.8,586.1,58.5,586.4,58.6,586.3z"/>
	<path class="st8" d="M153.3,366c-1.9-0.7-2.7,1.6-1.1,2.4C153.8,369.1,155,366.6,153.3,366C153.1,365.9,153.9,366.2,153.3,366z"/>
	<path class="st8" d="M72.4,517.7c-0.2,0.8-0.1,1.6-1.2,1.7c-0.8,0-1.8-0.8-1.8-1.6c0-0.7,0.9-1.1,1.4-1.1
		C71.8,516.7,71.9,517.1,72.4,517.7C72.3,518.1,72.2,517.5,72.4,517.7z"/>
	<path class="st8" d="M191.3,482.1c-0.8-2.3,2.9-1.9,2.7,0C193.7,483.6,191.5,483.4,191.3,482.1
		C191.1,481.5,191.4,482.6,191.3,482.1z"/>
	<path class="st8" d="M62.3,584.2c1.3,0.6,1.6,3.1-0.4,2.6C60,586.2,61.4,584.8,62.3,584.2C62.5,584.2,62.1,584.3,62.3,584.2z"/>
	<path class="st8" d="M141.9,483.7c-0.5-0.2-1.6-0.7-2.1-0.2c-0.3,0.3,0.2,1.3,0.5,1.5C141.1,485.8,142.5,484.8,141.9,483.7
		C141.5,483.6,141.9,483.8,141.9,483.7z"/>
</g>
</svg>
